<svg width="29" height="29" viewBox="0 0 29 29" fill="none" xmlns="http://www.w3.org/2000/svg">
<g clip-path="url(#clip0)">
<path d="M13.2913 27.7727C5.96301 27.7727 0 21.81 0 14.4816C0 7.15332 5.96301 1.19031 13.2913 1.19031C15.8396 1.19031 18.3189 1.91644 20.4612 3.29148C20.8818 3.56228 21.0051 4.12292 20.7342 4.54461C20.4626 4.96631 19.903 5.08821 19.4813 4.81763C17.6326 3.62976 15.4916 3.00275 13.2913 3.00275C6.96215 3.00275 1.81244 8.15246 1.81244 14.4816C1.81244 20.8106 6.96215 25.9603 13.2913 25.9603C19.6203 25.9603 24.77 20.8106 24.77 14.4816C24.77 14.1033 24.7518 13.7287 24.7169 13.3604C24.6687 12.8612 25.0335 12.419 25.5313 12.3707C26.0315 12.3247 26.4725 12.6873 26.5209 13.1851C26.5619 13.6117 26.5824 14.0442 26.5824 14.4816C26.5824 21.81 20.6196 27.7727 13.2913 27.7727Z" fill="#C92228"/>
<path d="M14.8015 17.5023C14.5697 17.5023 14.3376 17.414 14.1613 17.2366L8.72393 11.7993C8.36994 11.445 8.36994 10.8711 8.72393 10.5171C9.07792 10.1631 9.65183 10.1631 10.0058 10.5171L14.8029 15.3142L27.4524 2.66447C27.8066 2.31047 28.3805 2.31047 28.7345 2.66447C29.0885 3.01846 29.0885 3.59237 28.7345 3.94636L15.4432 17.2377C15.2655 17.414 15.0336 17.5023 14.8015 17.5023Z" fill="#C92228"/>
</g>
<defs>
<clipPath id="clip0">
<rect width="29" height="29" fill="white"/>
</clipPath>
</defs>
</svg>
