<svg width="544" height="405" viewBox="0 0 544 405" fill="none" xmlns="http://www.w3.org/2000/svg">
<g clip-path="url(#clip0)">
<path d="M413.991 260.887C409.242 261.58 401.221 261.28 392.038 260.46C367.069 258.236 333.478 252.22 333.478 252.22C333.478 252.22 158.919 230.192 41.5341 150.079C41.5341 150.079 24.9058 136.319 45.0444 126.786C48.1328 125.378 51.3391 124.245 54.6262 123.401L54.883 123.234C57.2419 121.826 59.722 120.633 62.2935 119.668C69.8649 116.767 82.1913 114.038 95.3934 119.246L421.534 245.261C421.534 245.261 431.665 258.294 413.991 260.887Z" fill="#3F3D56"/>
<path d="M351.942 221.903L433.24 186.671L463.258 198.647L421.534 245.261C421.534 245.261 350.885 230.917 351.942 221.903Z" fill="#3F3D56"/>
<path d="M180.408 153.8L329.572 144.059L351.266 153.602L281.607 168.782L257.026 186.83L180.408 153.8Z" fill="#3F3D56"/>
<path d="M392.038 260.46C367.069 258.236 333.478 252.22 333.478 252.22C333.478 252.22 158.919 230.192 41.5341 150.079C41.5341 150.079 24.9057 136.319 45.0444 126.786L45.0515 127.042C45.0515 127.042 68.8298 151.664 198.076 195.341L392.038 260.46Z" fill="#C92228"/>
<path d="M369.633 254.593L427.152 293.615L443.339 295.203L411.668 258.93C411.668 258.93 368.176 239.581 369.633 254.593Z" fill="#3F3D56"/>
<path d="M67.2985 134.614C64.2846 134.029 58.4681 127.535 54.9055 123.238C57.2645 121.831 59.7445 120.638 62.3161 119.672C65.2062 123.05 70.4379 128.633 73.887 129.188C78.8589 130.026 71.8389 135.489 67.2985 134.614Z" fill="#C92228"/>
<path d="M323.17 337.63L282.303 331.202L184.863 230.525L166.776 211.833L157.992 202.751C180.649 190.574 254.35 229.552 254.35 229.552C255.584 231.137 255.617 233.345 255.057 235.658C254.005 239.988 250.877 244.672 249.698 246.345C249.414 246.756 249.246 246.971 249.246 246.971L323.17 337.63Z" fill="#3F3D56"/>
<path d="M198.456 269.748L190.505 272.705L196.386 265.875C195.386 264.661 194.01 263.814 192.476 263.47L192.363 263.446C191.875 263.353 191.396 263.214 190.934 263.031L188.243 264.036L189.649 262.401C188.093 261.456 186.875 260.044 186.168 258.366L181.352 260.176L185.062 255.861C183.212 252.355 180.252 249.82 176.568 249.042C172.153 248.108 167.666 249.903 164.261 253.462C163.249 254.53 161.972 255.31 160.561 255.724C159.149 256.137 157.653 256.169 156.225 255.817L155.991 255.767C151.116 254.737 145.998 259.428 144.556 266.249C143.114 273.07 145.896 279.432 150.771 280.462C151.843 280.685 152.953 280.643 154.005 280.34C155.835 279.885 157.742 279.833 159.594 280.187C161.446 280.541 163.199 281.293 164.732 282.391C166.027 283.331 167.504 283.987 169.069 284.318C170.634 284.649 172.251 284.646 173.815 284.31C175.644 283.938 177.532 283.963 179.351 284.384C181.169 284.805 182.876 285.612 184.356 286.751C185.192 287.44 186.181 287.919 187.241 288.147C192.116 289.178 197.234 284.486 198.676 277.665C199.266 275.049 199.19 272.327 198.456 269.748Z" fill="#F2F2F2"/>
<path opacity="0.03" d="M181.446 285.028C179.001 284.008 176.309 283.737 173.71 284.25C172.147 284.588 170.53 284.592 168.966 284.261C167.401 283.93 165.924 283.273 164.632 282.332C163.1 281.232 161.346 280.479 159.494 280.125C157.642 279.771 155.735 279.824 153.905 280.281C152.851 280.582 151.74 280.624 150.666 280.402C146.337 279.487 143.657 274.359 144.125 268.444C145.124 267.998 146.027 267.361 146.782 266.569C150.186 263.014 154.674 261.22 159.089 262.153C163.503 263.086 166.852 266.48 168.528 271.076C169.026 272.46 169.872 273.691 170.986 274.651C172.1 275.61 173.443 276.266 174.885 276.553L174.997 276.577C178.445 277.296 180.846 280.688 181.446 285.028Z" fill="black"/>
<path d="M397.668 305.73L389.717 308.686L395.598 301.857C394.599 300.642 393.223 299.796 391.688 299.451L391.575 299.427C391.087 299.334 390.608 299.195 390.146 299.012L387.455 300.017L388.861 298.382C387.305 297.437 386.087 296.025 385.38 294.347L380.564 296.157L384.274 291.842C382.424 288.336 379.464 285.802 375.78 285.023C371.365 284.09 366.878 285.884 363.473 289.444C362.461 290.511 361.184 291.291 359.773 291.705C358.361 292.119 356.865 292.151 355.438 291.798L355.203 291.749C350.328 290.718 345.21 295.41 343.768 302.231C342.326 309.052 345.108 315.413 349.983 316.444C351.055 316.667 352.165 316.625 353.217 316.321C355.047 315.867 356.954 315.814 358.806 316.169C360.658 316.523 362.411 317.274 363.945 318.372C365.239 319.312 366.716 319.969 368.281 320.299C369.846 320.63 371.463 320.628 373.027 320.292C374.856 319.919 376.744 319.944 378.563 320.366C380.382 320.787 382.088 321.593 383.568 322.732C384.404 323.421 385.394 323.9 386.453 324.129C391.328 325.159 396.446 320.468 397.888 313.647C398.478 311.031 398.402 308.309 397.668 305.73Z" fill="#F2F2F2"/>
<path opacity="0.03" d="M380.658 321.009C378.213 319.989 375.521 319.718 372.922 320.232C371.359 320.569 369.742 320.573 368.178 320.242C366.613 319.912 365.137 319.254 363.844 318.313C362.312 317.213 360.559 316.46 358.706 316.106C356.854 315.752 354.947 315.805 353.117 316.262C352.063 316.564 350.952 316.605 349.878 316.384C345.549 315.469 342.869 310.34 343.337 304.425C344.336 303.979 345.239 303.342 345.995 302.551C349.398 298.995 353.886 297.201 358.301 298.134C362.716 299.067 366.064 302.462 367.74 307.057C368.239 308.445 369.089 309.679 370.207 310.64C371.325 311.6 372.673 312.255 374.119 312.539L374.232 312.563C377.657 313.277 380.058 316.669 380.658 321.009Z" fill="black"/>
<path d="M428.945 157.759L420.994 160.716L426.875 153.886C425.875 152.671 424.499 151.825 422.965 151.48L422.852 151.457C422.364 151.363 421.885 151.224 421.423 151.041L418.732 152.047L420.138 150.412C418.582 149.466 417.364 148.054 416.657 146.377L411.841 148.186L415.551 143.871C413.701 140.365 410.741 137.831 407.057 137.052C402.642 136.119 398.155 137.913 394.75 141.473C393.738 142.54 392.461 143.321 391.05 143.734C389.638 144.148 388.142 144.18 386.715 143.827L386.48 143.778C381.605 142.747 376.487 147.439 375.045 154.26C373.603 161.081 376.385 167.442 381.26 168.473C382.332 168.696 383.442 168.654 384.494 168.35C386.324 167.896 388.231 167.844 390.083 168.198C391.935 168.552 393.688 169.304 395.222 170.401C396.513 171.344 397.989 172.005 399.553 172.339C401.117 172.674 402.734 172.675 404.299 172.343C406.129 171.971 408.016 171.996 409.835 172.417C411.654 172.838 413.361 173.645 414.84 174.784C415.677 175.473 416.666 175.952 417.725 176.18C422.6 177.211 427.719 172.52 429.16 165.698C429.755 163.076 429.681 160.345 428.945 157.759Z" fill="#F2F2F2"/>
<path opacity="0.03" d="M411.935 173.038C409.49 172.018 406.798 171.748 404.199 172.261C402.636 172.599 401.019 172.602 399.455 172.272C397.89 171.941 396.414 171.283 395.121 170.342C393.589 169.243 391.836 168.49 389.983 168.136C388.131 167.781 386.224 167.835 384.394 168.292C383.34 168.593 382.229 168.635 381.155 168.413C376.826 167.498 374.146 162.369 374.614 156.455C375.613 156.008 376.516 155.372 377.272 154.58C380.675 151.025 385.163 149.23 389.578 150.163C393.993 151.097 397.341 154.491 399.017 159.087C399.516 160.474 400.366 161.708 401.484 162.669C402.602 163.63 403.95 164.284 405.396 164.568L405.509 164.592C408.934 165.306 411.335 168.698 411.935 173.038Z" fill="black"/>
<path d="M142.792 80.5952L138.829 82.0715L141.763 78.6669C141.266 78.0587 140.579 77.6347 139.813 77.4629L139.759 77.4514C139.515 77.4025 139.276 77.3331 139.044 77.2438L137.704 77.743L138.4 76.9475C137.624 76.4764 137.016 75.7723 136.663 74.9355L134.262 75.8418L136.129 73.6962C135.72 72.8494 135.128 72.1046 134.395 71.5159C133.662 70.9273 132.807 70.5096 131.892 70.2934C129.691 69.8282 127.453 70.7219 125.772 72.5014C125.266 73.0354 124.628 73.4254 123.922 73.6315C123.216 73.8376 122.468 73.8523 121.755 73.6742L121.638 73.6494C119.207 73.1357 116.653 75.48 115.934 78.8815C115.215 82.2831 116.603 85.456 119.034 85.9698C119.569 86.0811 120.123 86.0607 120.648 85.9104C121.561 85.6823 122.513 85.6556 123.437 85.8323C124.361 86.0089 125.236 86.3846 126 86.9334C126.643 87.3991 127.377 87.7245 128.154 87.8887C128.931 88.0529 129.733 88.0522 130.51 87.8866C131.423 87.7005 132.365 87.7131 133.272 87.9236C134.18 88.1341 135.031 88.5376 135.769 89.1066C136.186 89.4481 136.678 89.6862 137.205 89.8013C139.636 90.3151 142.189 87.9752 142.908 84.5737C143.204 83.2588 143.164 81.8906 142.792 80.5952Z" fill="#F2F2F2"/>
<path opacity="0.03" d="M134.308 88.2181C133.088 87.7059 131.743 87.571 130.446 87.8308C129.67 87.9944 128.867 87.9949 128.091 87.8324C127.305 87.6661 126.564 87.3344 125.917 86.8592C125.152 86.312 124.277 85.9375 123.352 85.7616C122.428 85.5858 121.477 85.6128 120.564 85.8408C120.04 85.9914 119.488 86.0121 118.954 85.9011C116.794 85.4446 115.455 82.8853 115.687 79.937C116.185 79.7118 116.636 79.3945 117.016 79.0018C118.71 77.2251 120.949 76.3315 123.136 76.7938C125.323 77.2561 127.002 78.9636 127.847 81.2489C128.097 81.9422 128.522 82.5588 129.081 83.0381C129.641 83.5174 130.315 83.843 131.038 83.9829L131.097 83.9953C132.797 84.3547 134.007 86.0526 134.308 88.2181Z" fill="black"/>
<path d="M407.327 366.97L403.364 368.446L406.298 365.041C405.801 364.433 405.114 364.009 404.348 363.837L404.293 363.826C404.05 363.777 403.811 363.707 403.579 363.618L402.239 364.117L402.935 363.322C402.158 362.851 401.551 362.147 401.198 361.31L398.797 362.216L400.663 360.071C400.255 359.224 399.662 358.479 398.929 357.89C398.196 357.302 397.341 356.884 396.427 356.668C394.226 356.203 391.988 357.096 390.307 358.876C389.801 359.41 389.163 359.8 388.457 360.006C387.751 360.212 387.003 360.227 386.29 360.049L386.173 360.024C383.742 359.51 381.188 361.854 380.469 365.256C379.75 368.657 381.138 371.83 383.568 372.344C384.103 372.455 384.657 372.435 385.183 372.285C386.096 372.057 387.047 372.03 387.972 372.207C388.896 372.383 389.77 372.759 390.535 373.308C391.178 373.773 391.912 374.099 392.689 374.263C393.465 374.427 394.268 374.427 395.045 374.261C395.957 374.075 396.9 374.087 397.807 374.298C398.714 374.508 399.566 374.912 400.303 375.481C400.721 375.823 401.213 376.061 401.74 376.176C404.17 376.689 406.724 374.35 407.443 370.948C407.738 369.633 407.699 368.265 407.327 366.97Z" fill="#F2F2F2"/>
<path opacity="0.03" d="M398.842 374.592C397.623 374.08 396.278 373.945 394.981 374.205C394.204 374.369 393.402 374.369 392.625 374.207C391.84 374.04 391.099 373.709 390.452 373.234C389.686 372.686 388.811 372.312 387.887 372.136C386.963 371.96 386.011 371.987 385.098 372.215C384.575 372.366 384.022 372.386 383.489 372.276C381.329 371.819 379.99 369.26 380.222 366.311C380.72 366.086 381.17 365.769 381.55 365.376C383.245 363.599 385.483 362.706 387.67 363.168C389.857 363.63 391.536 365.338 392.382 367.623C392.631 368.317 393.057 368.933 393.616 369.412C394.175 369.892 394.85 370.217 395.573 370.357L395.632 370.37C397.332 370.729 398.542 372.427 398.842 374.592Z" fill="black"/>
<path d="M80.1549 310.068L76.1918 311.544L79.1256 308.139C78.6284 307.531 77.9418 307.107 77.1753 306.935L77.1212 306.924C76.8776 306.875 76.6385 306.806 76.4066 306.716L75.0668 307.215L75.7626 306.42C74.9863 305.949 74.3784 305.245 74.0255 304.408L71.6244 305.314L73.4912 303.169C73.0825 302.322 72.4901 301.577 71.7572 300.988C71.0242 300.4 70.1692 299.982 69.2544 299.766C67.0537 299.301 64.8155 300.194 63.1344 301.974C62.6287 302.508 61.9903 302.898 61.2845 303.104C60.5787 303.31 59.8309 303.325 59.1176 303.147L59.0003 303.122C56.5697 302.608 54.0154 304.953 53.2964 308.354C52.5774 311.756 53.9655 314.928 56.3962 315.442C56.9311 315.554 57.4851 315.533 58.0105 315.383C58.9235 315.155 59.8751 315.128 60.7993 315.305C61.7236 315.481 62.5983 315.857 63.3628 316.406C64.0059 316.872 64.7396 317.197 65.5164 317.361C66.2932 317.525 67.0959 317.525 67.8724 317.359C68.7852 317.173 69.7273 317.186 70.6347 317.396C71.5422 317.607 72.3936 318.01 73.1313 318.579C73.5485 318.921 74.0406 319.159 74.5673 319.274C76.998 319.788 79.5514 317.448 80.2704 314.046C80.5662 312.731 80.5265 311.363 80.1549 310.068Z" fill="#F2F2F2"/>
<path opacity="0.03" d="M71.6701 317.691C70.4507 317.178 69.1058 317.044 67.8088 317.303C67.0321 317.467 66.2298 317.467 65.4529 317.305C64.6676 317.139 63.9266 316.807 63.2795 316.332C62.5141 315.784 61.6391 315.41 60.7148 315.234C59.7906 315.058 58.8391 315.085 57.9262 315.313C57.4025 315.464 56.8499 315.485 56.3164 315.374C54.1563 314.917 52.8175 312.358 53.0497 309.409C53.5475 309.184 53.9982 308.867 54.3781 308.474C56.0727 306.698 58.3109 305.804 60.4981 306.266C62.6853 306.729 64.3643 308.436 65.2097 310.721C65.4591 311.415 65.8844 312.031 66.4438 312.511C67.0032 312.99 67.6775 313.315 68.4007 313.455L68.4593 313.468C70.1595 313.827 71.3694 315.525 71.6701 317.691Z" fill="black"/>
<path d="M300.406 66.0231L292.456 68.98L298.337 62.1501C297.337 60.9357 295.961 60.0893 294.427 59.7447L294.314 59.7208C293.825 59.6275 293.347 59.4885 292.885 59.3056L290.194 60.311L291.6 58.6758C290.044 57.7306 288.826 56.3187 288.118 54.641L283.303 56.4508L287.013 52.1358C285.163 48.6295 282.203 46.0952 278.519 45.3164C274.104 44.3832 269.616 46.1776 266.212 49.7372C265.2 50.8047 263.923 51.585 262.511 51.9986C261.1 52.4122 259.604 52.4443 258.176 52.0918L257.942 52.0422C253.067 51.0118 247.948 55.7031 246.507 62.5242C245.065 69.3453 247.847 75.7067 252.722 76.7371C253.794 76.9601 254.904 76.9181 255.956 76.6148C257.786 76.1601 259.693 76.108 261.545 76.462C263.397 76.8161 265.15 77.5678 266.683 78.6654C267.975 79.6087 269.451 80.2691 271.015 80.6037C272.579 80.9384 274.196 80.9398 275.761 80.6077C277.59 80.2354 279.478 80.2606 281.297 80.6816C283.115 81.1026 284.822 81.9096 286.302 83.0479C287.138 83.7373 288.127 84.2163 289.187 84.4447C294.062 85.4752 299.18 80.7838 300.622 73.9627C301.217 71.3399 301.143 68.6096 300.406 66.0231Z" fill="#F2F2F2"/>
<path opacity="0.03" d="M283.397 81.3027C280.952 80.2825 278.259 80.0119 275.661 80.5253C274.098 80.863 272.481 80.8666 270.917 80.536C269.352 80.2053 267.875 79.5478 266.583 78.6065C265.05 77.5069 263.297 76.7539 261.445 76.3998C259.593 76.0458 257.685 76.099 255.855 76.5558C254.802 76.8572 253.69 76.8988 252.617 76.6772C248.288 75.7621 245.607 70.6335 246.076 64.7189C247.075 64.2727 247.978 63.6358 248.733 62.8441C252.137 59.289 256.624 57.4946 261.039 58.4278C265.454 59.361 268.803 62.755 270.479 67.3509C270.978 68.7383 271.828 69.9725 272.946 70.9332C274.064 71.8939 275.412 72.5483 276.858 72.8325L276.971 72.8563C280.395 73.5708 282.797 76.9627 283.397 81.3027Z" fill="black"/>
<path d="M523.043 193.96L519.08 195.436L522.014 192.032C521.517 191.423 520.83 190.999 520.064 190.828L520.01 190.816C519.766 190.767 519.527 190.698 519.295 190.609L517.955 191.108L518.651 190.312C517.875 189.841 517.267 189.137 516.914 188.3L514.513 189.207L516.38 187.061C515.971 186.214 515.378 185.469 514.646 184.881C513.913 184.292 513.058 183.874 512.143 183.658C509.942 183.193 507.704 184.087 506.023 185.866C505.517 186.4 504.879 186.79 504.173 186.996C503.467 187.202 502.719 187.217 502.006 187.039L501.889 187.014C499.458 186.5 496.904 188.845 496.185 192.246C495.466 195.648 496.854 198.821 499.284 199.335C499.819 199.446 500.373 199.425 500.899 199.275C501.812 199.047 502.763 199.02 503.688 199.197C504.612 199.374 505.487 199.749 506.251 200.298C506.894 200.764 507.628 201.089 508.405 201.253C509.182 201.418 509.984 201.417 510.761 201.251C511.674 201.065 512.616 201.078 513.523 201.288C514.431 201.499 515.282 201.902 516.02 202.471C516.437 202.813 516.929 203.051 517.456 203.166C519.886 203.68 522.44 201.34 523.159 197.938C523.455 196.624 523.415 195.255 523.043 193.96Z" fill="#F2F2F2"/>
<path opacity="0.03" d="M514.558 201.583C513.339 201.071 511.994 200.936 510.697 201.195C509.92 201.359 509.118 201.36 508.341 201.197C507.564 201.029 506.831 200.699 506.19 200.229C505.425 199.681 504.55 199.307 503.626 199.131C502.701 198.955 501.75 198.982 500.837 199.21C500.313 199.361 499.761 199.382 499.227 199.271C497.067 198.814 495.728 196.255 495.961 193.306C496.458 193.081 496.909 192.764 497.289 192.371C498.984 190.595 501.222 189.701 503.409 190.163C505.596 190.626 507.275 192.333 508.121 194.618C508.369 195.308 508.791 195.922 509.346 196.4C509.901 196.878 510.57 197.205 511.289 197.348L511.348 197.36C513.048 197.719 514.258 199.417 514.558 201.583Z" fill="black"/>
</g>
<defs>
<clipPath id="clip0">
<rect width="490.025" height="310.199" fill="white" transform="translate(64.1503) rotate(11.9351)"/>
</clipPath>
</defs>
</svg>
