<svg width="541" height="408" viewBox="0 0 541 408" fill="none" xmlns="http://www.w3.org/2000/svg">
<g clip-path="url(#clip0)">
<path d="M463.499 221.021C463.499 283.776 426.681 339.293 370.242 373.088C334.055 394.761 289.796 407.504 242.009 407.504C178.347 407.504 129.785 383.461 93.2553 346.629C59.5851 312.69 36.1405 267.882 20.5191 221.021C-49.2189 11.7942 67.2792 -45.2856 242.009 34.5379C353.26 85.3676 463.499 118.032 463.499 221.021Z" fill="#C92228"/>
<path d="M370.242 111.489V373.584C334.055 395.257 289.796 408 242.009 408C178.347 408 129.785 383.957 93.2553 347.125V111.489H370.242Z" fill="#F2F2F2"/>
<path d="M119.897 239.197C134.399 234.587 149.446 231.906 164.649 231.224C172.268 230.9 179.899 231.198 187.469 232.116C194.965 233.107 202.371 234.691 209.616 236.854C216.774 238.925 223.834 241.318 230.968 243.468C238.215 245.68 245.583 247.477 253.035 248.849C260.448 250.19 267.936 251.082 275.457 251.52C282.904 251.953 290.425 252.037 297.851 251.244C304.788 250.577 311.582 248.856 318 246.14C323.985 243.53 329.516 239.985 334.386 235.637C335.601 234.553 336.77 233.421 337.893 232.242C338.556 231.55 337.504 230.496 336.84 231.189C327.347 241.106 314.869 247.255 301.335 249.309C293.962 250.427 286.448 250.492 279.011 250.204C271.406 249.911 263.828 249.145 256.318 247.913C248.9 246.683 241.561 245.014 234.34 242.914C227.248 240.86 220.252 238.493 213.185 236.358C206.055 234.121 198.777 232.388 191.404 231.173C184.01 230.047 176.536 229.529 169.057 229.623C154.112 229.862 139.264 232.059 124.892 236.158C123.086 236.665 121.29 237.199 119.501 237.762C118.59 238.047 118.979 239.485 119.897 239.197H119.897Z" fill="#3F3D56"/>
<path d="M119.897 276.896C134.399 272.286 149.446 269.606 164.649 268.923C172.268 268.599 179.899 268.898 187.469 269.815C194.965 270.806 202.371 272.391 209.616 274.554C216.774 276.625 223.834 279.017 230.968 281.168C238.215 283.379 245.583 285.176 253.035 286.549C260.448 287.889 267.936 288.781 275.457 289.219C282.904 289.652 290.425 289.736 297.851 288.943C304.788 288.276 311.582 286.555 318 283.84C323.985 281.23 329.516 277.684 334.386 273.337C335.601 272.253 336.77 271.121 337.893 269.941C338.556 269.249 337.504 268.195 336.84 268.889C327.347 278.806 314.869 284.955 301.335 287.008C293.962 288.127 286.448 288.192 279.011 287.903C271.406 287.61 263.828 286.845 256.318 285.612C248.9 284.383 241.561 282.713 234.34 280.613C227.248 278.56 220.252 276.192 213.185 274.058C206.055 271.821 198.777 270.088 191.404 268.872C184.01 267.747 176.536 267.228 169.057 267.322C154.112 267.561 139.264 269.758 124.892 273.858C123.086 274.364 121.29 274.899 119.501 275.461C118.59 275.747 118.979 277.184 119.897 276.896H119.897Z" fill="#3F3D56"/>
<path d="M119.897 204.97C134.399 200.36 149.446 197.679 164.649 196.997C172.268 196.673 179.899 196.971 187.469 197.889C194.965 198.88 202.371 200.464 209.616 202.627C216.774 204.698 223.834 207.091 230.968 209.241C238.215 211.453 245.583 213.25 253.035 214.622C260.448 215.963 267.936 216.855 275.457 217.293C282.904 217.725 290.425 217.81 297.851 217.017C304.788 216.35 311.582 214.628 318 211.913C323.985 209.303 329.516 205.758 334.386 201.41C335.601 200.326 336.77 199.194 337.893 198.015C338.556 197.323 337.504 196.269 336.84 196.962C327.347 206.879 314.869 213.028 301.335 215.082C293.962 216.2 286.448 216.265 279.011 215.977C271.406 215.684 263.828 214.918 256.318 213.686C248.9 212.456 241.561 210.787 234.34 208.687C227.248 206.633 220.252 204.266 213.185 202.131C206.055 199.894 198.777 198.161 191.404 196.946C184.01 195.82 176.536 195.302 169.057 195.396C154.112 195.634 139.264 197.832 124.892 201.931C123.086 202.438 121.29 202.972 119.501 203.535C118.59 203.82 118.979 205.257 119.897 204.97H119.897Z" fill="#3F3D56"/>
<path d="M118.123 140.256C121.726 138.661 125.853 138.939 129.592 139.864C133.624 140.862 137.421 142.596 141.39 143.795C148.494 145.91 156.041 146.053 163.22 144.209C167.262 143.179 171.119 141.527 174.653 139.312C175.462 138.803 174.716 137.515 173.901 138.027C167.602 141.958 160.321 144.032 152.894 144.012C149.17 144.006 145.466 143.461 141.897 142.393C137.957 141.213 134.191 139.499 130.2 138.482C125.971 137.405 121.436 137.172 117.371 138.971C116.497 139.359 117.253 140.641 118.123 140.256V140.256Z" fill="#3F3D56"/>
<path d="M228.77 368.44C241.381 368.44 251.604 358.224 251.604 345.622C251.604 333.02 241.381 322.804 228.77 322.804C216.159 322.804 205.936 333.02 205.936 345.622C205.936 358.224 216.159 368.44 228.77 368.44Z" fill="#3F3D56"/>
<path d="M105.665 64.8611C112.519 64.8611 118.075 59.309 118.075 52.46C118.075 45.6111 112.519 40.0589 105.665 40.0589C98.8114 40.0589 93.2553 45.6111 93.2553 52.46C93.2553 59.309 98.8114 64.8611 105.665 64.8611Z" fill="#F2F2F2"/>
<path d="M214.375 96.1119C219.035 96.1119 222.813 92.3364 222.813 87.6792C222.813 83.0219 219.035 79.2464 214.375 79.2464C209.714 79.2464 205.936 83.0219 205.936 87.6792C205.936 92.3364 209.714 96.1119 214.375 96.1119Z" fill="#F2F2F2"/>
<path d="M77.3708 176.967C82.0313 176.967 85.8094 173.192 85.8094 168.534C85.8094 163.877 82.0313 160.102 77.3708 160.102C72.7102 160.102 68.9321 163.877 68.9321 168.534C68.9321 173.192 72.7102 176.967 77.3708 176.967Z" fill="#F2F2F2"/>
<path d="M43.3954 105.888H42.4648V272.184H43.3954V105.888Z" fill="#3F3D56"/>
<path d="M43.1096 257.932C53.1316 257.932 61.256 239.405 61.256 216.55C61.256 193.696 53.1316 175.168 43.1096 175.168C33.0876 175.168 24.9631 193.696 24.9631 216.55C24.9631 239.405 33.0876 257.932 43.1096 257.932Z" fill="#3F3D56"/>
<path d="M43.1096 163.544C53.1316 163.544 61.256 145.016 61.256 122.162C61.256 99.3069 53.1316 80.7795 43.1096 80.7795C33.0876 80.7795 24.9631 99.3069 24.9631 122.162C24.9631 145.016 33.0876 163.544 43.1096 163.544Z" fill="#3F3D56"/>
<path d="M43.5553 88.3525L42.6638 88.0855C42.7201 87.8975 48.191 69.1628 39.2079 57.1022C34.1342 50.2907 25.4279 46.8368 13.3307 46.8368V45.9069C25.7401 45.9069 34.6983 49.4879 39.957 56.5505C49.2181 68.9891 43.613 88.1604 43.5553 88.3525Z" fill="#3F3D56"/>
<path d="M13.3308 57.996C19.7551 57.996 24.9631 52.7917 24.9631 46.3718C24.9631 39.952 19.7551 34.7476 13.3308 34.7476C6.9064 34.7476 1.69843 39.952 1.69843 46.3718C1.69843 52.7917 6.9064 57.996 13.3308 57.996Z" fill="#3F3D56"/>
<path d="M382.588 309.868L373.885 389.879H433.936L436.547 383.792L440.028 389.879H496.597C496.597 389.879 492.246 307.259 484.413 304.65C476.58 302.041 382.588 309.868 382.588 309.868Z" fill="#2F2E41"/>
<path d="M433.936 134.19C450.759 134.19 464.396 120.562 464.396 103.751C464.396 86.94 450.759 73.3119 433.936 73.3119C417.113 73.3119 403.476 86.94 403.476 103.751C403.476 120.562 417.113 134.19 433.936 134.19Z" fill="#FFB8B8"/>
<path d="M416.53 122.884C416.53 122.884 419.141 150.714 416.53 152.454C413.919 154.193 458.304 153.324 458.304 153.324C458.304 153.324 452.212 128.102 458.304 115.927L416.53 122.884Z" fill="#FFB8B8"/>
<path d="M432.195 146.366C432.195 146.366 454.589 149.851 456.447 142.891L467.878 158.542L468.748 315.086C468.748 315.086 375.626 326.392 372.145 308.128C368.664 289.865 407.827 145.496 407.827 145.496L417.686 144.858C417.686 144.858 430.455 146.366 432.195 146.366Z" fill="#D0CDE1"/>
<path d="M417.538 137.716L402.605 142.887L359.961 153.323L361.701 257.686C361.701 257.686 325.149 362.049 341.684 369.876C358.22 377.704 381.718 359.44 388.68 346.395C395.643 333.349 420.011 152.454 420.011 148.975C420.011 145.496 417.538 137.716 417.538 137.716Z" fill="#3F3D56"/>
<path d="M455.887 137.716L461.785 142.887L503.56 162.02L482.673 267.253C482.673 267.253 510.522 362.919 500.079 368.137C489.635 373.355 473.97 388.14 470.488 379.443C467.007 370.746 446.508 147.33 455.887 137.716Z" fill="#3F3D56"/>
<path d="M480.062 276.82C480.062 276.82 440.898 260.295 440.028 275.08C439.158 289.865 484.413 300.301 484.413 295.953C484.413 291.604 480.062 276.82 480.062 276.82Z" fill="#FFB8B8"/>
<path d="M384.329 270.732C384.329 270.732 429.585 304.65 412.179 313.347C394.773 322.043 372.145 282.907 372.145 282.907L384.329 270.732Z" fill="#FFB8B8"/>
<path d="M447.459 59.1625C447.602 58.8598 447.833 58.6068 448.121 58.436C448.409 58.2652 448.741 58.1843 449.076 58.2037C435.13 57.3702 420.442 58.9944 408.775 66.6739C405.507 68.8246 402.456 71.4545 398.736 72.6666L401.756 75.0328L398.148 76.1317L403.457 79.5607C402.921 80.1698 402.233 80.6263 401.464 80.884C400.694 81.1416 399.87 81.1913 399.075 81.0279C401.382 81.7015 403.081 83.7533 403.944 85.9953C404.807 88.2373 404.962 90.6791 405.107 93.0767C405.999 89.6172 409.777 87.5807 413.346 87.3738C416.915 87.1668 420.396 88.3436 423.869 89.1895C431.435 91.0266 439.292 91.3287 446.976 90.0778C444.366 95.3104 446.567 101.552 448.782 106.963L453.205 117.768C455.66 118.014 457.395 115.574 459.245 113.942C460.931 112.455 454.219 125.538 455.258 125.058C456.608 124.436 470.855 108.717 471.523 107.389C474.567 101.33 476.393 94.5723 476.118 87.7984C475.843 81.0245 473.363 74.2473 468.691 69.3319C465.519 65.995 461.13 65.4105 457.896 62.6371C456.623 61.5456 456.619 60.6928 454.87 60.0563C454.289 59.845 447.555 58.9494 447.459 59.1625Z" fill="#2F2E41"/>
<path d="M366.053 155.933L359.961 153.323L311.224 233.335C311.224 233.335 302.521 254.208 318.186 263.774C333.852 273.341 370.404 302.041 370.404 302.041L391.291 269.862C391.291 269.862 348.647 249.859 351.258 242.032C353.869 234.205 367.793 213.332 367.793 213.332L366.053 155.933Z" fill="#3F3D56"/>
<path d="M492.246 160.281L503.56 162.02C503.56 162.02 550.556 254.208 539.242 271.601C527.928 288.995 481.802 313.347 481.802 313.347C481.802 313.347 480.932 284.647 473.099 274.211L500.079 263.774L485.284 206.375L492.246 160.281Z" fill="#3F3D56"/>
</g>
<defs>
<clipPath id="clip0">
<rect width="541" height="408" fill="white"/>
</clipPath>
</defs>
</svg>
