<svg id="home_img" xmlns="http://www.w3.org/2000/svg" xmlns:xlink="http://www.w3.org/1999/xlink" viewBox="0 0 605 503" shape-rendering="geometricPrecision" text-rendering="geometricPrecision"><style><![CDATA[#home_img-g3_to {animation: home_img-g3_to__to 6000ms linear infinite normal backwards}@keyframes home_img-g3_to__to { 0% {transform: translate(289.777992px,242.348753px)} 10% {transform: translate(289.777992px,242.348753px)} 31.666667% {transform: translate(289.777992px,-214px)} 100% {transform: translate(289.777992px,-214px)} }#home_img-path74_tr {animation: home_img-path74_tr__tr 6000ms linear infinite normal backwards}@keyframes home_img-path74_tr__tr { 0% {transform: translate(509.252716px,242.597450px) rotate(0deg)} 100% {transform: translate(509.252716px,242.597450px) rotate(2121.428571deg)} }#home_img-path75_tr {animation: home_img-path75_tr__tr 6000ms linear infinite normal backwards}@keyframes home_img-path75_tr__tr { 0% {transform: translate(593.584503px,308.675858px) rotate(0deg)} 100% {transform: translate(593.584503px,308.675858px) rotate(2121.428571deg)} }#home_img-path76_tr {animation: home_img-path76_tr__tr 6000ms linear infinite normal backwards}@keyframes home_img-path76_tr__tr { 0% {transform: translate(437.293991px,253.440002px) rotate(0deg)} 100% {transform: translate(437.293991px,253.440002px) rotate(2121.428571deg)} }#home_img-path77_tr {animation: home_img-path77_tr__tr 6000ms linear infinite normal backwards}@keyframes home_img-path77_tr__tr { 0% {transform: translate(443.008987px,312.983002px) rotate(0deg)} 100% {transform: translate(443.008987px,312.983002px) rotate(2121.428571deg)} }#home_img-path78_tr {animation: home_img-path78_tr__tr 6000ms linear infinite normal backwards}@keyframes home_img-path78_tr__tr { 0% {transform: translate(443.692139px,312.297485px) rotate(360deg)} 100% {transform: translate(443.692139px,312.297485px) rotate(2121.428571deg)} }#home_img-path79_tr {animation: home_img-path79_tr__tr 6000ms linear infinite normal backwards}@keyframes home_img-path79_tr__tr { 0% {transform: translate(558.828766px,245.362297px) rotate(0deg)} 100% {transform: translate(558.828766px,245.362297px) rotate(2121.428571deg)} }]]></style><defs><linearGradient id="home_img-path1-fill" x1="289.781000" y1="453.333000" x2="289.781000" y2="31.384900" spreadMethod="pad" gradientUnits="userSpaceOnUse"><stop id="home_img-path1-fill-0" offset="0%" stop-color="rgba(128,128,128,0.25)"/><stop id="home_img-path1-fill-1" offset="54%" stop-color="rgba(128,128,128,0.12)"/><stop id="home_img-path1-fill-2" offset="100%" stop-color="rgba(128,128,128,0.1)"/></linearGradient><linearGradient id="home_img-path19-fill" x1="226.193000" y1="403.137000" x2="226.193000" y2="444.045000" spreadMethod="pad" gradientUnits="userSpaceOnUse"><stop id="home_img-path19-fill-0" offset="0%" stop-color="rgb(224,224,224)"/><stop id="home_img-path19-fill-1" offset="31%" stop-color="rgb(252,204,99)"/><stop id="home_img-path19-fill-2" offset="77%" stop-color="rgb(245,95,68)"/></linearGradient><linearGradient id="home_img-path20-fill" x1="6617.270000" y1="25647.600000" x2="6617.270000" y2="28209.200000" spreadMethod="pad" gradientUnits="userSpaceOnUse"><stop id="home_img-path20-fill-0" offset="0%" stop-color="rgb(224,224,224)"/><stop id="home_img-path20-fill-1" offset="31%" stop-color="rgb(252,204,99)"/><stop id="home_img-path20-fill-2" offset="77%" stop-color="rgb(245,95,68)"/></linearGradient><linearGradient id="home_img-path21-fill" x1="7356.580000" y1="25647.600000" x2="7356.580000" y2="28209.200000" spreadMethod="pad" gradientUnits="userSpaceOnUse"><stop id="home_img-path21-fill-0" offset="0%" stop-color="rgb(224,224,224)"/><stop id="home_img-path21-fill-1" offset="31%" stop-color="rgb(252,204,99)"/><stop id="home_img-path21-fill-2" offset="77%" stop-color="rgb(245,95,68)"/></linearGradient><linearGradient id="home_img-path22-fill" x1="8549.810000" y1="25647.600000" x2="8549.810000" y2="28209.200000" spreadMethod="pad" gradientUnits="userSpaceOnUse"><stop id="home_img-path22-fill-0" offset="0%" stop-color="rgb(224,224,224)"/><stop id="home_img-path22-fill-1" offset="31%" stop-color="rgb(252,204,99)"/><stop id="home_img-path22-fill-2" offset="77%" stop-color="rgb(245,95,68)"/></linearGradient><linearGradient id="home_img-path25-fill" x1="233207" y1="102500" x2="233207" y2="79599.700000" spreadMethod="pad" gradientUnits="userSpaceOnUse"><stop id="home_img-path25-fill-0" offset="0%" stop-color="rgba(128,128,128,0.25)"/><stop id="home_img-path25-fill-1" offset="54%" stop-color="rgba(128,128,128,0.12)"/><stop id="home_img-path25-fill-2" offset="100%" stop-color="rgba(128,128,128,0.1)"/></linearGradient><linearGradient id="home_img-path26-fill" x1="178.332000" y1="383.098000" x2="178.332000" y2="478.238000" spreadMethod="pad" gradientUnits="userSpaceOnUse"><stop id="home_img-path26-fill-0" offset="0%" stop-color="rgb(242,242,242)"/><stop id="home_img-path26-fill-1" offset="31%" stop-color="rgb(230,230,230)"/><stop id="home_img-path26-fill-2" offset="77%" stop-color="rgb(204,204,204)"/></linearGradient><linearGradient id="home_img-path27-fill" x1="28532.400000" y1="63624.700000" x2="28532.400000" y2="80241.500000" spreadMethod="pad" gradientUnits="userSpaceOnUse"><stop id="home_img-path27-fill-0" offset="0%" stop-color="rgb(242,242,242)"/><stop id="home_img-path27-fill-1" offset="31%" stop-color="rgb(230,230,230)"/><stop id="home_img-path27-fill-2" offset="77%" stop-color="rgb(204,204,204)"/></linearGradient><linearGradient id="home_img-path28-fill" x1="62548.400000" y1="63624.700000" x2="62548.400000" y2="80241.500000" spreadMethod="pad" gradientUnits="userSpaceOnUse"><stop id="home_img-path28-fill-0" offset="0%" stop-color="rgb(242,242,242)"/><stop id="home_img-path28-fill-1" offset="31%" stop-color="rgb(230,230,230)"/><stop id="home_img-path28-fill-2" offset="77%" stop-color="rgb(204,204,204)"/></linearGradient><linearGradient id="home_img-path29-fill" x1="56770.300000" y1="59464.100000" x2="56770.300000" y2="73322.300000" spreadMethod="pad" gradientUnits="userSpaceOnUse"><stop id="home_img-path29-fill-0" offset="0%" stop-color="rgb(242,242,242)"/><stop id="home_img-path29-fill-1" offset="31%" stop-color="rgb(230,230,230)"/><stop id="home_img-path29-fill-2" offset="77%" stop-color="rgb(204,204,204)"/></linearGradient><linearGradient id="home_img-path30-fill" x1="55007.200000" y1="60686.900000" x2="55007.200000" y2="72045.400000" spreadMethod="pad" gradientUnits="userSpaceOnUse"><stop id="home_img-path30-fill-0" offset="0%" stop-color="rgb(242,242,242)"/><stop id="home_img-path30-fill-1" offset="31%" stop-color="rgb(230,230,230)"/><stop id="home_img-path30-fill-2" offset="77%" stop-color="rgb(204,204,204)"/></linearGradient><linearGradient id="home_img-path31-fill" x1="63646.400000" y1="39433" x2="63646.400000" y2="43548.700000" spreadMethod="pad" gradientUnits="userSpaceOnUse"><stop id="home_img-path31-fill-0" offset="0%" stop-color="rgb(242,242,242)"/><stop id="home_img-path31-fill-1" offset="31%" stop-color="rgb(230,230,230)"/><stop id="home_img-path31-fill-2" offset="77%" stop-color="rgb(204,204,204)"/></linearGradient><linearGradient id="home_img-path32-fill" x1="76828.300000" y1="45685.900000" x2="76828.300000" y2="51451.200000" spreadMethod="pad" gradientUnits="userSpaceOnUse"><stop id="home_img-path32-fill-0" offset="0%" stop-color="rgb(242,242,242)"/><stop id="home_img-path32-fill-1" offset="31%" stop-color="rgb(230,230,230)"/><stop id="home_img-path32-fill-2" offset="77%" stop-color="rgb(204,204,204)"/></linearGradient><linearGradient id="home_img-path33-fill" x1="34238.500000" y1="45712.200000" x2="34238.500000" y2="51480.800000" spreadMethod="pad" gradientUnits="userSpaceOnUse"><stop id="home_img-path33-fill-0" offset="0%" stop-color="rgb(242,242,242)"/><stop id="home_img-path33-fill-1" offset="31%" stop-color="rgb(230,230,230)"/><stop id="home_img-path33-fill-2" offset="77%" stop-color="rgb(204,204,204)"/></linearGradient><linearGradient id="home_img-path34-fill" x1="12869.100000" y1="11147.200000" x2="12869.100000" y2="10680.900000" spreadMethod="pad" gradientUnits="userSpaceOnUse"><stop id="home_img-path34-fill-0" offset="0%" stop-color="rgba(128,128,128,0.25)"/><stop id="home_img-path34-fill-1" offset="54%" stop-color="rgba(128,128,128,0.12)"/><stop id="home_img-path34-fill-2" offset="100%" stop-color="rgba(128,128,128,0.1)"/></linearGradient><linearGradient id="home_img-path35-fill" x1="11959.200000" y1="9942.150000" x2="11959.200000" y2="10342.600000" spreadMethod="pad" gradientUnits="userSpaceOnUse"><stop id="home_img-path35-fill-0" offset="0%" stop-color="rgb(242,242,242)"/><stop id="home_img-path35-fill-1" offset="31%" stop-color="rgb(230,230,230)"/><stop id="home_img-path35-fill-2" offset="77%" stop-color="rgb(204,204,204)"/></linearGradient><linearGradient id="home_img-path36-fill" x1="15198.400000" y1="14681.900000" x2="15198.400000" y2="14127.400000" spreadMethod="pad" gradientUnits="userSpaceOnUse"><stop id="home_img-path36-fill-0" offset="0%" stop-color="rgba(128,128,128,0.25)"/><stop id="home_img-path36-fill-1" offset="54%" stop-color="rgba(128,128,128,0.12)"/><stop id="home_img-path36-fill-2" offset="100%" stop-color="rgba(128,128,128,0.1)"/></linearGradient><linearGradient id="home_img-path37-fill" x1="504.576000" y1="469.198000" x2="504.576000" y2="487.278000" spreadMethod="pad" gradientUnits="userSpaceOnUse"><stop id="home_img-path37-fill-0" offset="0%" stop-color="rgb(242,242,242)"/><stop id="home_img-path37-fill-1" offset="31%" stop-color="rgb(224,224,224)"/><stop id="home_img-path37-fill-2" offset="77%" stop-color="rgb(179,179,179)"/></linearGradient><linearGradient id="home_img-path38-fill" x1="3188.920000" y1="14325" x2="3188.920000" y2="13655.400000" spreadMethod="pad" gradientUnits="userSpaceOnUse"><stop id="home_img-path38-fill-0" offset="0%" stop-color="rgba(128,128,128,0.25)"/><stop id="home_img-path38-fill-1" offset="54%" stop-color="rgba(128,128,128,0.12)"/><stop id="home_img-path38-fill-2" offset="100%" stop-color="rgba(128,128,128,0.1)"/></linearGradient><linearGradient id="home_img-path39-fill" x1="3049.860000" y1="13074.700000" x2="3049.860000" y2="13685.700000" spreadMethod="pad" gradientUnits="userSpaceOnUse"><stop id="home_img-path39-fill-0" offset="0%" stop-color="rgb(242,242,242)"/><stop id="home_img-path39-fill-1" offset="31%" stop-color="rgb(230,230,230)"/><stop id="home_img-path39-fill-2" offset="77%" stop-color="rgb(204,204,204)"/></linearGradient><linearGradient id="home_img-path40-fill" x1="49413.200000" y1="8766.260000" x2="49413.200000" y2="3726.500000" spreadMethod="pad" gradientUnits="userSpaceOnUse"><stop id="home_img-path40-fill-0" offset="0%" stop-color="rgba(128,128,128,0.25)"/><stop id="home_img-path40-fill-1" offset="54%" stop-color="rgba(128,128,128,0.12)"/><stop id="home_img-path40-fill-2" offset="100%" stop-color="rgba(128,128,128,0.1)"/></linearGradient><linearGradient id="home_img-path61-fill" x1="14462.200000" y1="13456.600000" x2="14462.200000" y2="13957.100000" spreadMethod="pad" gradientUnits="userSpaceOnUse"><stop id="home_img-path61-fill-0" offset="0%" stop-color="rgb(242,242,242)"/><stop id="home_img-path61-fill-1" offset="31%" stop-color="rgb(230,230,230)"/><stop id="home_img-path61-fill-2" offset="77%" stop-color="rgb(204,204,204)"/></linearGradient><linearGradient id="home_img-path62-fill" x1="10825.100000" y1="12432.200000" x2="10825.100000" y2="11288.800000" spreadMethod="pad" gradientUnits="userSpaceOnUse"><stop id="home_img-path62-fill-0" offset="0%" stop-color="rgba(128,128,128,0.25)"/><stop id="home_img-path62-fill-1" offset="54%" stop-color="rgba(128,128,128,0.12)"/><stop id="home_img-path62-fill-2" offset="100%" stop-color="rgba(128,128,128,0.1)"/></linearGradient></defs><g id="home_img-g1" clip-path="url(#home_img-clip0)"><g id="home_img-g2"><g id="home_img-g3_to" transform="translate(289.777992,242.348753)"><g id="home_img-g3" transform="translate(-289.777992,-242.348753)" opacity="0.7"><path id="home_img-path1" d="M382.279000,226.408000C382.332000,210.494000,378.517000,194.804000,371.162000,180.687000C367.670000,174.057000,364.486000,169.935000,362.007000,167.408000C361.073000,166.418000,359.852000,165.744000,358.516000,165.480000C357.179000,165.217000,355.794000,165.377000,354.553000,165.938000C353.561000,166.288000,352.665000,166.865000,351.937000,167.623000C348.621000,171.052000,345.626000,175.585000,343.011000,180.412000C335.273000,194.860000,331.257000,211.004000,331.325000,227.388000L331.325000,237.225000L325.008000,237.225000L325.008000,122.920000C325.008000,98.961900,319.639000,75.323600,309.124000,54.337300C304.141000,44.402500,299.597000,38.230100,296.098000,34.435200C295.250000,33.470400,294.207000,32.697500,293.036000,32.168000C291.865000,31.638400,290.595000,31.364500,289.310000,31.364500C288.025000,31.364500,286.755000,31.638400,285.585000,32.168000C284.414000,32.697500,283.370000,33.470400,282.523000,34.435200C277.788000,39.575600,273.518000,46.368600,269.784000,53.592700C258.726000,75.010100,253.109000,99.314600,253.109000,123.985000L253.109000,237.225000L247.649000,237.225000L247.649000,226.918000C247.716000,210.533000,243.700000,194.389000,235.963000,179.942000C233.347000,175.122000,230.352000,170.589000,227.037000,167.153000C226.083000,166.149000,224.834000,165.474000,223.470000,165.225000C222.107000,164.976000,220.699000,165.166000,219.451000,165.768000L219.680000,165.892000C218.880000,166.246000,218.155000,166.752000,217.548000,167.381000C215.096000,169.909000,211.912000,174.031000,208.393000,180.660000C201.039000,194.778000,197.224000,210.468000,197.277000,226.382000L197.277000,397.278000L216.764000,397.278000L214.638000,411.328000L214.638000,453.333000L230.568000,453.333000L230.568000,411.328000L228.443000,397.278000L247.649000,397.278000L247.649000,241.647000L253.109000,241.647000L253.109000,396.579000L268.672000,396.579000L266.436000,411.321000L266.436000,453.333000L282.372000,453.333000L282.372000,411.328000L280.136000,396.585000L301.107000,396.585000L298.871000,411.328000L298.871000,453.333000L314.807000,453.333000L314.807000,411.328000L312.570000,396.585000L324.995000,396.585000L324.995000,241.647000L331.312000,241.647000L331.312000,397.513000L336.432000,397.513000L336.432000,397.278000L353.362000,397.278000L351.237000,411.328000L351.237000,453.333000L367.173000,453.333000L367.173000,411.328000L365.048000,397.278000L382.279000,397.278000L382.279000,226.408000Z" opacity="0.7" fill="url(#home_img-path1-fill)" stroke="none" stroke-width="1"/></g></g><path id="home_img-path2" d="M233.740000,403.137000L218.653000,403.137000L221.348000,384.841000L231.045000,384.841000L233.740000,403.137000Z" fill="rgb(83,84,97)" stroke="none" stroke-width="1"/><g id="home_img-g4" opacity="0.1"><path id="home_img-path3" d="M220.596000,392.105000L231.797000,392.105000L231.045000,386.990000L221.348000,386.990000L220.596000,392.105000Z" opacity="0.1" fill="rgb(0,0,0)" stroke="none" stroke-width="1"/></g><path id="home_img-path4" d="M363.060000,403.137000L347.974000,403.137000L350.668000,384.841000L360.366000,384.841000L363.060000,403.137000Z" fill="rgb(83,84,97)" stroke="none" stroke-width="1"/><g id="home_img-g5" opacity="0.1"><path id="home_img-path5" d="M349.916000,392.105000L361.118000,392.105000L360.366000,386.990000L350.668000,386.990000L349.916000,392.105000Z" opacity="0.1" fill="rgb(0,0,0)" stroke="none" stroke-width="1"/></g><path id="home_img-path6" d="M282.778000,403.137000L267.685000,403.137000L270.379000,384.841000L280.083000,384.841000L282.778000,403.137000Z" fill="rgb(83,84,97)" stroke="none" stroke-width="1"/><g id="home_img-g6" opacity="0.1"><path id="home_img-path7" d="M269.627000,392.105000L280.835000,392.105000L280.083000,386.990000L270.379000,386.990000L269.627000,392.105000Z" opacity="0.1" fill="rgb(0,0,0)" stroke="none" stroke-width="1"/></g><path id="home_img-path8" d="M313.486000,403.137000L298.400000,403.137000L301.094000,384.841000L310.792000,384.841000L313.486000,403.137000Z" fill="rgb(83,84,97)" stroke="none" stroke-width="1"/><g id="home_img-g7" opacity="0.1"><path id="home_img-path9" d="M300.342000,392.105000L311.550000,392.105000L310.792000,386.990000L301.094000,386.990000L300.342000,392.105000Z" opacity="0.1" fill="rgb(0,0,0)" stroke="none" stroke-width="1"/></g><path id="home_img-path10" d="M341.507000,233.600000L233.740000,233.600000L233.740000,237.904000L341.507000,237.904000L341.507000,233.600000Z" fill="rgb(83,84,97)" stroke="none" stroke-width="1"/><path id="home_img-path11" d="M358.169000,165.585000C357.599000,164.957000,356.904000,164.455000,356.129000,164.112000C355.354000,163.769000,354.515000,163.591000,353.667000,163.591000C352.818000,163.591000,351.979000,163.769000,351.204000,164.112000C350.429000,164.455000,349.734000,164.957000,349.164000,165.585000C346.025000,168.923000,343.194000,173.338000,340.716000,178.035000C333.382000,192.158000,329.587000,207.847000,329.658000,223.757000L329.658000,389.459000L377.349000,389.459000L377.349000,223.071000C377.408000,207.597000,373.798000,192.330000,366.814000,178.518000C363.505000,172.065000,360.490000,168.048000,358.169000,165.585000Z" fill="rgb(224,224,224)" stroke="none" stroke-width="1"/><path id="home_img-path12" d="M221.413000,165.585000C221.983000,164.957000,222.677000,164.455000,223.453000,164.112000C224.228000,163.769000,225.067000,163.591000,225.915000,163.591000C226.764000,163.591000,227.602000,163.769000,228.378000,164.112000C229.153000,164.455000,229.848000,164.957000,230.418000,165.585000C233.556000,168.923000,236.388000,173.338000,238.866000,178.035000C246.200000,192.158000,249.995000,207.847000,249.924000,223.757000L249.924000,389.459000L202.220000,389.459000L202.220000,223.071000C202.160000,207.597000,205.771000,192.330000,212.755000,178.518000C216.057000,172.065000,219.072000,168.048000,221.413000,165.585000Z" fill="rgb(224,224,224)" stroke="none" stroke-width="1"/><path id="home_img-path13" d="M202.488000,226.604000L213.801000,226.657000L213.801000,240.595000L202.488000,240.595000L202.488000,226.604000Z" fill="rgb(83,84,97)" stroke="none" stroke-width="1"/><path id="home_img-path14" d="M238.592000,226.604000L249.905000,226.657000L249.905000,240.595000L238.592000,240.595000L238.592000,226.604000Z" fill="rgb(83,84,97)" stroke="none" stroke-width="1"/><path id="home_img-path15" d="M329.651000,226.604000L340.970000,226.657000L340.970000,240.595000L329.651000,240.595000L329.651000,226.604000Z" fill="rgb(83,84,97)" stroke="none" stroke-width="1"/><path id="home_img-path16" d="M365.754000,226.604000L377.074000,226.657000L377.074000,240.595000L365.754000,240.595000L365.754000,226.604000Z" fill="rgb(83,84,97)" stroke="none" stroke-width="1"/><g id="home_img-g8" opacity="0.1"><path id="home_img-path17" d="M238.847000,177.819000C236.375000,173.123000,233.537000,168.707000,230.398000,165.370000C229.511000,164.391000,228.328000,163.729000,227.029000,163.485000C225.730000,163.241000,224.387000,163.428000,223.205000,164.018000C223.886000,164.357000,224.502000,164.815000,225.023000,165.370000C228.162000,168.707000,230.993000,173.123000,233.472000,177.819000C240.806000,191.942000,244.600000,207.631000,244.529000,223.541000L244.529000,389.231000L249.918000,389.231000L249.918000,223.561000C249.988000,207.643000,246.188000,191.947000,238.847000,177.819000Z" opacity="0.1" fill="rgb(0,0,0)" stroke="none" stroke-width="1"/></g><g id="home_img-g9" opacity="0.1"><path id="home_img-path18" d="M345.005000,178.276000C347.477000,173.580000,350.315000,169.165000,353.454000,165.827000C354.042000,165.195000,354.751000,164.689000,355.540000,164.338000C354.374000,163.828000,353.078000,163.697000,351.833000,163.964000C350.589000,164.232000,349.461000,164.883000,348.608000,165.827000C345.470000,169.165000,342.638000,173.580000,340.160000,178.276000C332.826000,192.399000,329.031000,208.089000,329.102000,223.998000L329.102000,389.688000L333.954000,389.688000L333.954000,224.024000C333.877000,208.106000,337.669000,192.408000,345.005000,178.276000Z" opacity="0.1" fill="rgb(0,0,0)" stroke="none" stroke-width="1"/></g><path id="home_img-path19" d="M233.740000,403.137000L218.653000,403.137000L218.653000,444.038000L233.740000,444.038000L233.740000,403.137000Z" fill="url(#home_img-path19-fill)" stroke="none" stroke-width="1"/><path id="home_img-path20" d="M282.771000,403.137000L267.685000,403.137000L267.685000,444.038000L282.771000,444.038000L282.771000,403.137000Z" fill="url(#home_img-path20-fill)" stroke="none" stroke-width="1"/><path id="home_img-path21" d="M313.486000,403.137000L298.400000,403.137000L298.400000,444.038000L313.486000,444.038000L313.486000,403.137000Z" fill="url(#home_img-path21-fill)" stroke="none" stroke-width="1"/><path id="home_img-path22" d="M363.060000,403.137000L347.974000,403.137000L347.974000,444.038000L363.060000,444.038000L363.060000,403.137000Z" fill="url(#home_img-path22-fill)" stroke="none" stroke-width="1"/><path id="home_img-path23" d="M295.765000,35.669600C294.976000,34.734000,293.993000,33.981800,292.883000,33.465800C291.773000,32.949800,290.564000,32.682400,289.340000,32.682400C288.116000,32.682400,286.906000,32.949800,285.796000,33.465800C284.687000,33.981800,283.703000,34.734000,282.915000,35.669600C278.436000,40.672900,274.414000,47.289600,270.856000,54.330700C260.394000,75.193000,255.071000,98.870400,255.071000,122.881000L255.071000,388.780000L323.138000,388.780000L323.138000,121.810000C323.138000,98.478500,318.057000,75.434700,308.098000,55.049200C303.383000,45.375800,299.080000,39.366600,295.765000,35.669600Z" fill="rgb(238,238,238)" stroke="none" stroke-width="1"/><path id="home_img-path24" d="M299.198000,65.206000L278.069000,65.206000C274.097000,65.206000,270.876000,68.422800,270.876000,72.390900L270.876000,74.278500C270.876000,78.246600,274.097000,81.463400,278.069000,81.463400L299.198000,81.463400C303.170000,81.463400,306.391000,78.246600,306.391000,74.278500L306.391000,72.390900C306.391000,68.422800,303.170000,65.206000,299.198000,65.206000Z" fill="rgb(201,34,40)" stroke="none" stroke-width="1"/><g id="home_img-g10" opacity="0.7"><path id="home_img-path25" d="M447.672000,439.571000C445.438000,426.119000,438.212000,414.002000,427.433000,405.635000C416.654000,397.268000,403.114000,393.265000,389.512000,394.424000C375.911000,395.584000,363.246000,401.820000,354.042000,411.890000C344.838000,421.961000,339.772000,435.126000,339.852000,448.761000C339.852000,449.029000,339.852000,449.290000,339.852000,449.558000C337.845000,449.861000,335.857000,450.287000,333.902000,450.831000C331.397000,440.867000,325.852000,431.927000,318.035000,425.249000C310.218000,418.572000,300.516000,414.487000,290.273000,413.561000C280.029000,412.634000,269.750000,414.912000,260.860000,420.079000C251.969000,425.246000,244.907000,433.046000,240.652000,442.399000C236.265000,440.709000,231.658000,439.657000,226.971000,439.277000C226.224000,435.038000,224.971000,430.905000,223.238000,426.964000C222.424000,414.532000,216.948000,402.863000,207.901000,394.285000C198.855000,385.708000,186.904000,380.852000,174.431000,380.687000C161.959000,380.522000,149.883000,385.060000,140.613000,393.396000C131.342000,401.731000,125.559000,413.252000,124.416000,425.658000C121.848000,431.089000,120.208000,436.911000,119.564000,442.882000C108.213000,447.600000,99.019000,456.358000,93.764700,467.460000C88.510300,478.563000,87.569600,491.218000,91.124700,502.974000L488.437000,502.974000C490.508000,496.117000,491.067000,488.893000,490.074000,481.800000C489.081000,474.707000,486.560000,467.913000,482.685000,461.887000C478.811000,455.861000,473.674000,450.745000,467.629000,446.892000C461.585000,443.040000,454.776000,440.542000,447.672000,439.571000Z" opacity="0.7" fill="url(#home_img-path25-fill)" stroke="none" stroke-width="1"/></g><path id="home_img-path26" d="M178.332000,478.238000C204.635000,478.238000,225.958000,456.940000,225.958000,430.668000C225.958000,404.395000,204.635000,383.098000,178.332000,383.098000C152.030000,383.098000,130.707000,404.395000,130.707000,430.668000C130.707000,456.940000,152.030000,478.238000,178.332000,478.238000Z" fill="url(#home_img-path26-fill)" stroke="none" stroke-width="1"/><path id="home_img-path27" d="M178.097000,500.596000C206.899000,500.596000,230.248000,477.275000,230.248000,448.506000C230.248000,419.737000,206.899000,396.416000,178.097000,396.416000C149.295000,396.416000,125.946000,419.737000,125.946000,448.506000C125.946000,477.275000,149.295000,500.596000,178.097000,500.596000Z" fill="url(#home_img-path27-fill)" stroke="none" stroke-width="1"/><path id="home_img-path28" d="M390.035000,500.596000C418.837000,500.596000,442.185000,477.275000,442.185000,448.506000C442.185000,419.737000,418.837000,396.416000,390.035000,396.416000C361.233000,396.416000,337.884000,419.737000,337.884000,448.506000C337.884000,477.275000,361.233000,500.596000,390.035000,500.596000Z" fill="url(#home_img-path28-fill)" stroke="none" stroke-width="1"/><path id="home_img-path29" d="M387.412000,500.596000C413.715000,500.596000,435.038000,479.298000,435.038000,453.026000C435.038000,426.753000,413.715000,405.455000,387.412000,405.455000C361.110000,405.455000,339.787000,426.753000,339.787000,453.026000C339.787000,479.298000,361.110000,500.596000,387.412000,500.596000Z" fill="url(#home_img-path29-fill)" stroke="none" stroke-width="1"/><path id="home_img-path30" d="M333.594000,462.066000C333.602000,469.588000,331.820000,477.005000,328.396000,483.705000C324.971000,490.405000,320.002000,496.197000,313.898000,500.603000L258.033000,500.603000C251.421000,495.829000,246.147000,489.440000,242.716000,482.046000C239.285000,474.653000,237.812000,466.503000,238.438000,458.379000C239.065000,450.254000,241.769000,442.425000,246.293000,435.644000C250.817000,428.862000,257.008000,423.355000,264.274000,419.649000C271.540000,415.943000,279.637000,414.162000,287.790000,414.478000C295.942000,414.794000,303.877000,417.196000,310.833000,421.453000C317.790000,425.710000,323.535000,431.680000,327.520000,438.792000C331.504000,445.903000,333.593000,453.917000,333.588000,462.066000L333.594000,462.066000Z" fill="url(#home_img-path30-fill)" stroke="none" stroke-width="1"/><path id="home_img-path31" d="M392.657000,496.318000C392.657000,497.742000,392.594000,499.151000,392.467000,500.544000C392.472000,500.563000,392.472000,500.584000,392.467000,500.603000L297.596000,500.603000C297.465000,499.192000,297.399000,497.762000,297.399000,496.325000C297.391000,484.941000,301.474000,473.933000,308.905000,465.303000C316.336000,456.672000,326.621000,450.992000,337.890000,449.296000C340.246000,448.943000,342.624000,448.764000,345.005000,448.761000C346.221000,448.761000,347.431000,448.806000,348.628000,448.891000C357.164000,449.543000,365.367000,452.480000,372.374000,457.392000C379.382000,462.304000,384.936000,469.011000,388.452000,476.808000C388.648000,477.239000,388.838000,477.677000,389.014000,478.114000C391.419000,483.883000,392.657000,490.069000,392.657000,496.318000Z" fill="url(#home_img-path31-fill)" stroke="none" stroke-width="1"/><path id="home_img-path32" d="M482.670000,486.801000C482.675000,491.475000,481.988000,496.124000,480.630000,500.596000L389.472000,500.596000C387.268000,493.281000,386.849000,485.546000,388.249000,478.036000C388.328000,477.624000,388.406000,477.206000,388.498000,476.801000C390.793000,466.166000,396.666000,456.637000,405.141000,449.802000C413.615000,442.967000,424.178000,439.238000,435.071000,439.237000C436.568000,439.237000,438.039000,439.303000,439.498000,439.446000C440.152000,439.499000,440.806000,439.577000,441.459000,439.662000C452.874000,441.213000,463.339000,446.844000,470.916000,455.511000C478.493000,464.178000,482.669000,475.295000,482.670000,486.801000Z" fill="url(#home_img-path32-fill)" stroke="none" stroke-width="1"/><path id="home_img-path33" d="M190.110000,500.603000C190.267000,500.106000,190.404000,499.610000,190.541000,499.107000C192.709000,491.008000,192.697000,482.480000,190.507000,474.387000C188.316000,466.294000,184.024000,458.922000,178.066000,453.017000C172.107000,447.113000,164.693000,442.885000,156.573000,440.761000C148.454000,438.637000,139.916000,438.693000,131.825000,440.923000C129.931000,441.442000,128.072000,442.083000,126.260000,442.843000C115.353000,447.375000,106.519000,455.792000,101.471000,466.460000C96.423500,477.128000,95.521100,489.288000,98.939100,500.583000L190.110000,500.583000L190.110000,500.603000Z" fill="url(#home_img-path33-fill)" stroke="none" stroke-width="1"/><g id="home_img-g11" opacity="0.7"><path id="home_img-path34" d="M464.569000,402.764000C469.394000,402.764000,473.306000,398.858000,473.306000,394.038000C473.306000,389.219000,469.394000,385.312000,464.569000,385.312000C459.744000,385.312000,455.833000,389.219000,455.833000,394.038000C455.833000,398.858000,459.744000,402.764000,464.569000,402.764000Z" opacity="0.7" fill="url(#home_img-path34-fill)" stroke="none" stroke-width="1"/></g><path id="home_img-path35" d="M464.569000,402.124000C469.040000,402.124000,472.665000,398.504000,472.665000,394.038000C472.665000,389.572000,469.040000,385.952000,464.569000,385.952000C460.098000,385.952000,456.474000,389.572000,456.474000,394.038000C456.474000,398.504000,460.098000,402.124000,464.569000,402.124000Z" fill="url(#home_img-path35-fill)" stroke="none" stroke-width="1"/><g id="home_img-g12" opacity="0.7"><path id="home_img-path36" d="M504.576000,487.755000C509.838000,487.755000,514.104000,483.494000,514.104000,478.238000C514.104000,472.982000,509.838000,468.722000,504.576000,468.722000C499.314000,468.722000,495.049000,472.982000,495.049000,478.238000C495.049000,483.494000,499.314000,487.755000,504.576000,487.755000Z" opacity="0.7" fill="url(#home_img-path36-fill)" stroke="none" stroke-width="1"/></g><path id="home_img-path37" d="M504.576000,487.278000C509.575000,487.278000,513.627000,483.231000,513.627000,478.238000C513.627000,473.246000,509.575000,469.198000,504.576000,469.198000C499.578000,469.198000,495.526000,473.246000,495.526000,478.238000C495.526000,483.231000,499.578000,487.278000,504.576000,487.278000Z" fill="url(#home_img-path37-fill)" stroke="none" stroke-width="1"/><g id="home_img-g13" opacity="0.7"><path id="home_img-path38" d="M96.892400,434.463000C102.674000,434.463000,107.362000,429.781000,107.362000,424.006000C107.362000,418.230000,102.674000,413.548000,96.892400,413.548000C91.110300,413.548000,86.423000,418.230000,86.423000,424.006000C86.423000,429.781000,91.110300,434.463000,96.892400,434.463000Z" opacity="0.7" fill="url(#home_img-path38-fill)" stroke="none" stroke-width="1"/></g><path id="home_img-path39" d="M96.892400,433.993000C102.414000,433.993000,106.891000,429.521000,106.891000,424.006000C106.891000,418.490000,102.414000,414.019000,96.892400,414.019000C91.370300,414.019000,86.893800,418.490000,86.893800,424.006000C86.893800,429.521000,91.370300,433.993000,96.892400,433.993000Z" fill="url(#home_img-path39-fill)" stroke="none" stroke-width="1"/><g id="home_img-g14" opacity="0.4"><path id="home_img-path40" d="M491.308000,11.410900C488.988000,8.347910,486.080000,5.776750,482.755000,3.847160C478.940000,1.657560,474.673000,0.372628,470.282000,0.091506C465.892000,-0.189616,461.495000,0.540594,457.432000,2.225790C453.368000,3.910980,449.747000,6.506100,446.847000,9.810900C443.947000,13.115700,441.846000,17.041800,440.706000,21.286300C439.565000,25.530800,439.417000,29.980200,440.271000,34.291100C441.126000,38.602000,442.960000,42.659300,445.633000,46.149700C448.307000,49.640200,451.747000,52.470500,455.689000,54.422400C459.631000,56.374200,463.969000,57.395400,468.369000,57.407100C468.977000,57.407100,469.585000,57.407100,470.186000,57.348400C475.363000,57.022200,480.354000,55.301700,484.630000,52.369600C488.906000,49.437500,492.307000,45.403200,494.472000,40.695400C496.637000,35.987600,497.485000,30.782000,496.925000,25.631600C496.366000,20.481100,494.420000,15.578200,491.295000,11.443500L491.308000,11.410900Z" opacity="0.4" fill="url(#home_img-path40-fill)" stroke="none" stroke-width="1"/></g><path id="home_img-path41" d="M495.526000,28.687300C495.527000,35.581100,492.898000,42.216300,488.175000,47.243300C483.452000,52.270200,476.989000,55.311400,470.101000,55.748100C469.533000,55.787300,468.957000,55.806900,468.382000,55.806900C464.219000,55.804500,460.113000,54.845900,456.381000,53.005400C452.649000,51.164900,449.390000,48.491800,446.857000,45.192600C444.325000,41.893500,442.585000,38.056700,441.774000,33.978900C440.963000,29.901200,441.101000,25.691600,442.178000,21.675800C443.256000,17.660000,445.243000,13.945400,447.987000,10.819300C450.731000,7.693220,454.158000,5.239300,458.003000,3.647290C461.849000,2.055280,466.009000,1.367820,470.162000,1.638060C474.316000,1.908310,478.351000,3.129020,481.957000,5.205810C485.102000,7.030060,487.852000,9.461380,490.046000,12.358000C493.610000,17.056900,495.535000,22.792400,495.526000,28.687300Z" opacity="0.2" fill="rgb(201,34,40)" stroke="none" stroke-width="1"/><path id="home_img-path42" d="M461.699000,11.489300C460.296000,12.093500,458.943000,12.805400,457.651000,13.618600C456.788000,14.096600,456.047000,14.767200,455.486000,15.578100C455.212000,15.984800,455.062000,16.461800,455.052000,16.951900C455.043000,17.442000,455.176000,17.924300,455.434000,18.341000C456.088000,19.242400,457.396000,19.386100,458.488000,19.444900C459.491000,19.657800,460.534000,19.600700,461.508000,19.279300C462.482000,18.958000,463.354000,18.384000,464.033000,17.616000L466.368000,15.499800C467.178000,14.768200,468.068000,13.755800,467.715000,12.723800C467.447000,11.933400,466.557000,11.548100,465.753000,11.417400C463.746000,11.023000,461.665000,11.388600,459.913000,12.442900" opacity="0.05" fill="rgb(245,95,68)" stroke="none" stroke-width="1"/><path id="home_img-path43" d="M451.948000,40.816600C452.736000,40.816600,453.374000,40.179100,453.374000,39.392700C453.374000,38.606300,452.736000,37.968800,451.948000,37.968800C451.161000,37.968800,450.523000,38.606300,450.523000,39.392700C450.523000,40.179100,451.161000,40.816600,451.948000,40.816600Z" opacity="0.05" fill="rgb(245,95,68)" stroke="none" stroke-width="1"/><path id="home_img-path44" d="M481.002000,35.584700C483.895000,35.584700,486.240000,33.242300,486.240000,30.352800C486.240000,27.463300,483.895000,25.120900,481.002000,25.120900C478.110000,25.120900,475.764000,27.463300,475.764000,30.352800C475.764000,33.242300,478.110000,35.584700,481.002000,35.584700Z" opacity="0.05" fill="rgb(245,95,68)" stroke="none" stroke-width="1"/><path id="home_img-path45" d="M490.053000,12.351500C490.032000,13.718500,489.619000,15.050900,488.862000,16.190200C488.105000,17.329500,487.037000,18.227800,485.784000,18.778300C484.531000,19.328800,483.146000,19.508300,481.794000,19.295600C480.442000,19.082900,479.180000,18.486900,478.157000,17.578300C477.134000,16.669800,476.394000,15.487000,476.024000,14.170500C475.655000,12.854100,475.671000,11.459300,476.072000,10.152100C476.473000,8.844840,477.242000,7.680100,478.286000,6.796320C479.330000,5.912530,480.607000,5.346880,481.964000,5.166600C485.112000,7.000420,487.862000,9.443040,490.053000,12.351500Z" opacity="0.05" fill="rgb(245,95,68)" stroke="none" stroke-width="1"/><path id="home_img-path46" d="M490.576000,44.304600C488.241000,47.623500,485.188000,50.375300,481.644000,52.356200C478.100000,54.337100,474.155000,55.496300,470.101000,55.748100C470.069000,55.375800,470.049000,54.996900,470.049000,54.618100C470.050000,52.238200,470.713000,49.905300,471.963000,47.879500C473.214000,45.853700,475.003000,44.214700,477.132000,43.145300C479.260000,42.075800,481.644000,41.617900,484.018000,41.822500C486.392000,42.027200,488.662000,42.886500,490.576000,44.304600Z" opacity="0.05" fill="rgb(245,95,68)" stroke="none" stroke-width="1"/><path id="home_img-path47" d="M472.665000,228.492000C474.507000,228.492000,476,227.001000,476,225.161000C476,223.321000,474.507000,221.830000,472.665000,221.830000C470.823000,221.830000,469.330000,223.321000,469.330000,225.161000C469.330000,227.001000,470.823000,228.492000,472.665000,228.492000Z" opacity="0.25" fill="rgb(83,84,97)" stroke="none" stroke-width="1"/><path id="home_img-path48" d="M27.994600,316.017000C29.836500,316.017000,31.329600,314.526000,31.329600,312.686000C31.329600,310.846000,29.836500,309.355000,27.994600,309.355000C26.152700,309.355000,24.659600,310.846000,24.659600,312.686000C24.659600,314.526000,26.152700,316.017000,27.994600,316.017000Z" opacity="0.25" fill="rgb(83,84,97)" stroke="none" stroke-width="1"/><path id="home_img-path49" d="M601.488000,334.959000C603.330000,334.959000,604.823000,333.467000,604.823000,331.628000C604.823000,329.788000,603.330000,328.296000,601.488000,328.296000C599.647000,328.296000,598.153000,329.788000,598.153000,331.628000C598.153000,333.467000,599.647000,334.959000,601.488000,334.959000Z" opacity="0.25" fill="rgb(83,84,97)" stroke="none" stroke-width="1"/><path id="home_img-path50" d="M188.808000,177.114000C190.650000,177.114000,192.143000,175.622000,192.143000,173.783000C192.143000,171.943000,190.650000,170.451000,188.808000,170.451000C186.966000,170.451000,185.473000,171.943000,185.473000,173.783000C185.473000,175.622000,186.966000,177.114000,188.808000,177.114000Z" opacity="0.25" fill="rgb(83,84,97)" stroke="none" stroke-width="1"/><path id="home_img-path51" d="M177.855000,100.523000C179.697000,100.523000,181.190000,99.031500,181.190000,97.191700C181.190000,95.352000,179.697000,93.860600,177.855000,93.860600C176.013000,93.860600,174.520000,95.352000,174.520000,97.191700C174.520000,99.031500,176.013000,100.523000,177.855000,100.523000Z" opacity="0.25" fill="rgb(83,84,97)" stroke="none" stroke-width="1"/><path id="home_img-path52" d="M83.552300,252.274000C85.394200,252.274000,86.887300,250.783000,86.887300,248.943000C86.887300,247.103000,85.394200,245.612000,83.552300,245.612000C81.710400,245.612000,80.217300,247.103000,80.217300,248.943000C80.217300,250.783000,81.710400,252.274000,83.552300,252.274000Z" opacity="0.25" fill="rgb(83,84,97)" stroke="none" stroke-width="1"/><path id="home_img-path53" d="M555.302000,252.855000L552.333000,252.855000L552.333000,249.896000L551.123000,249.896000L551.123000,252.855000L548.154000,252.855000L548.154000,254.070000L551.123000,254.070000L551.123000,257.029000L552.333000,257.029000L552.333000,254.070000L555.302000,254.070000L555.302000,252.855000Z" opacity="0.25" fill="rgb(83,84,97)" stroke="none" stroke-width="1"/><path id="home_img-path54" d="M605,150.308000L602.031000,150.308000L602.031000,147.349000L600.821000,147.349000L600.821000,150.308000L597.853000,150.308000L597.853000,151.522000L600.821000,151.522000L600.821000,154.481000L602.031000,154.481000L602.031000,151.522000L605,151.522000L605,150.308000Z" opacity="0.25" fill="rgb(83,84,97)" stroke="none" stroke-width="1"/><path id="home_img-path55" d="M393.370000,93.018000L390.401000,93.018000L390.401000,90.052600L389.191000,90.052600L389.191000,93.018000L386.222000,93.018000L386.222000,94.226400L389.191000,94.226400L389.191000,97.191800L390.401000,97.191800L390.401000,94.226400L393.370000,94.226400L393.370000,93.018000Z" opacity="0.25" fill="rgb(83,84,97)" stroke="none" stroke-width="1"/><path id="home_img-path56" d="M522.913000,236.206000L519.944000,236.206000L519.944000,233.247000L518.734000,233.247000L518.734000,236.206000L515.772000,236.206000L515.772000,237.421000L518.734000,237.421000L518.734000,240.380000L519.944000,240.380000L519.944000,237.421000L522.913000,237.421000L522.913000,236.206000Z" opacity="0.25" fill="rgb(83,84,97)" stroke="none" stroke-width="1"/><path id="home_img-path57" d="M414.322000,334.678000L411.359000,334.678000L411.359000,331.719000L410.149000,331.719000L410.149000,334.678000L407.181000,334.678000L407.181000,335.893000L410.149000,335.893000L410.149000,338.852000L411.359000,338.852000L411.359000,335.893000L414.322000,335.893000L414.322000,334.678000Z" opacity="0.25" fill="rgb(83,84,97)" stroke="none" stroke-width="1"/><path id="home_img-path58" d="M110.468000,131.549000L107.499000,131.549000L107.499000,128.590000L106.289000,128.590000L106.289000,131.549000L103.320000,131.549000L103.320000,132.757000L106.289000,132.757000L106.289000,135.722000L107.499000,135.722000L107.499000,132.757000L110.468000,132.757000L110.468000,131.549000Z" opacity="0.25" fill="rgb(83,84,97)" stroke="none" stroke-width="1"/><path id="home_img-path59" d="M7.147420,170.086000L4.178590,170.086000L4.178590,167.127000L2.968830,167.127000L2.968830,170.086000L0,170.086000L0,171.294000L2.968830,171.294000L2.968830,174.259000L4.178590,174.259000L4.178590,171.294000L7.147420,171.294000L7.147420,170.086000Z" opacity="0.25" fill="rgb(83,84,97)" stroke="none" stroke-width="1"/><path id="home_img-path60" d="M151.423000,291.392000L148.454000,291.392000L148.454000,288.427000L147.245000,288.427000L147.245000,291.392000L144.282000,291.392000L144.282000,292.601000L147.245000,292.601000L147.245000,295.566000L148.454000,295.566000L148.454000,292.601000L151.423000,292.601000L151.423000,291.392000Z" opacity="0.25" fill="rgb(83,84,97)" stroke="none" stroke-width="1"/><path id="home_img-path61" d="M504.576000,487.278000C509.575000,487.278000,513.627000,483.231000,513.627000,478.238000C513.627000,473.246000,509.575000,469.198000,504.576000,469.198000C499.578000,469.198000,495.526000,473.246000,495.526000,478.238000C495.526000,483.231000,499.578000,487.278000,504.576000,487.278000Z" fill="url(#home_img-path61-fill)" stroke="none" stroke-width="1"/><g id="home_img-g15" opacity="0.4"><path id="home_img-path62" d="M175.880000,227.512000C174.775000,226.052000,173.390000,224.827000,171.806000,223.907000C169.989000,222.850000,167.953000,222.227000,165.856000,222.084000C163.759000,221.941000,161.657000,222.282000,159.713000,223.082000C157.769000,223.882000,156.036000,225.119000,154.649000,226.696000C153.261000,228.273000,152.256000,230.148000,151.711000,232.176000C151.166000,234.204000,151.097000,236.331000,151.508000,238.390000C151.920000,240.449000,152.801000,242.386000,154.083000,244.050000C155.365000,245.714000,157.014000,247.060000,158.901000,247.985000C160.789000,248.909000,162.864000,249.387000,164.966000,249.380000C165.254000,249.380000,165.548000,249.380000,165.829000,249.380000C168.293000,249.223000,170.669000,248.402000,172.704000,247.005000C174.739000,245.609000,176.358000,243.688000,177.388000,241.446000C178.418000,239.205000,178.822000,236.727000,178.557000,234.275000C178.291000,231.823000,177.366000,229.488000,175.880000,227.519000L175.880000,227.512000Z" opacity="0.4" fill="url(#home_img-path62-fill)" stroke="none" stroke-width="1"/></g><path id="home_img-path63" d="M177.888000,235.742000C177.888000,239.026000,176.635000,242.186000,174.386000,244.580000C172.136000,246.974000,169.058000,248.422000,165.777000,248.629000C165.509000,248.629000,165.234000,248.629000,164.960000,248.629000C162.978000,248.627000,161.023000,248.170000,159.246000,247.293000C157.469000,246.416000,155.918000,245.143000,154.712000,243.572000C153.506000,242,152.678000,240.173000,152.292000,238.232000C151.906000,236.290000,151.972000,234.285000,152.485000,232.373000C152.998000,230.461000,153.945000,228.692000,155.251000,227.204000C156.558000,225.715000,158.190000,224.546000,160.020000,223.788000C161.851000,223.030000,163.832000,222.702000,165.810000,222.830000C167.788000,222.958000,169.710000,223.539000,171.427000,224.527000C172.924000,225.396000,174.233000,226.553000,175.279000,227.930000C176.983000,230.178000,177.900000,232.923000,177.888000,235.742000Z" opacity="0.2" fill="rgb(201,34,40)" stroke="none" stroke-width="1"/><path id="home_img-path64" d="M161.775000,227.551000C161.095000,227.837000,160.440000,228.176000,159.813000,228.564000C159.403000,228.788000,159.049000,229.103000,158.780000,229.485000C158.655000,229.680000,158.589000,229.907000,158.589000,230.138000C158.589000,230.369000,158.655000,230.596000,158.780000,230.791000C158.970000,230.978000,159.198000,231.121000,159.449000,231.211000C159.699000,231.301000,159.966000,231.336000,160.232000,231.314000C160.706000,231.411000,161.197000,231.381000,161.656000,231.229000C162.115000,231.076000,162.526000,230.806000,162.847000,230.445000L163.959000,229.439000C164.345000,229.086000,164.770000,228.610000,164.613000,228.133000C164.525000,227.952000,164.393000,227.798000,164.228000,227.683000C164.063000,227.569000,163.871000,227.499000,163.671000,227.480000C162.716000,227.293000,161.726000,227.468000,160.892000,227.970000" opacity="0.1" fill="rgb(245,95,68)" stroke="none" stroke-width="1"/><path id="home_img-path65" d="M157.132000,241.516000C157.508000,241.516000,157.812000,241.212000,157.812000,240.837000C157.812000,240.462000,157.508000,240.158000,157.132000,240.158000C156.756000,240.158000,156.452000,240.462000,156.452000,240.837000C156.452000,241.212000,156.756000,241.516000,157.132000,241.516000Z" opacity="0.1" fill="rgb(245,95,68)" stroke="none" stroke-width="1"/><path id="home_img-path66" d="M170.969000,239.028000C172.349000,239.028000,173.467000,237.911000,173.467000,236.533000C173.467000,235.155000,172.349000,234.037000,170.969000,234.037000C169.590000,234.037000,168.471000,235.155000,168.471000,236.533000C168.471000,237.911000,169.590000,239.028000,170.969000,239.028000Z" opacity="0.1" fill="rgb(245,95,68)" stroke="none" stroke-width="1"/><path id="home_img-path67" d="M175.279000,227.989000C175.270000,228.640000,175.075000,229.274000,174.716000,229.817000C174.357000,230.360000,173.850000,230.789000,173.254000,231.052000C172.658000,231.315000,171.999000,231.402000,171.356000,231.302000C170.712000,231.202000,170.111000,230.919000,169.623000,230.488000C169.136000,230.056000,168.782000,229.494000,168.606000,228.868000C168.429000,228.241000,168.436000,227.578000,168.626000,226.955000C168.816000,226.333000,169.181000,225.778000,169.677000,225.357000C170.174000,224.936000,170.781000,224.666000,171.427000,224.580000C172.924000,225.450000,174.233000,226.609000,175.279000,227.989000Z" opacity="0.1" fill="rgb(245,95,68)" stroke="none" stroke-width="1"/><path id="home_img-path68" d="M175.534000,243.182000C174.422000,244.763000,172.968000,246.074000,171.281000,247.019000C169.593000,247.963000,167.714000,248.515000,165.784000,248.636000C165.784000,248.459000,165.784000,248.277000,165.784000,248.094000C165.780000,246.955000,166.094000,245.838000,166.692000,244.868000C167.289000,243.898000,168.146000,243.113000,169.165000,242.603000C170.184000,242.093000,171.326000,241.876000,172.461000,241.979000C173.597000,242.081000,174.681000,242.498000,175.592000,243.182000L175.534000,243.182000Z" opacity="0.1" fill="rgb(245,95,68)" stroke="none" stroke-width="1"/><g id="home_img-g16" opacity="0.1"><path id="home_img-path69" d="M322.772000,131.973000L255.417000,131.973000L255.417000,134.586000L322.772000,134.586000L322.772000,131.973000Z" opacity="0.1" fill="rgb(0,0,0)" stroke="none" stroke-width="1"/></g><g id="home_img-g17" clip-path="url(#home_img-clip1)"><g id="home_img-g18"><path id="home_img-path70" d="M326.685000,500.747000C326.685000,509.595000,321.444000,512.685000,314.978000,512.685000C314.828000,512.685000,314.678000,512.683000,314.529000,512.680000C314.229000,512.673000,313.933000,512.659000,313.640000,512.639000C307.804000,512.224000,303.270000,508.976000,303.270000,500.747000C303.270000,492.230000,314.115000,481.484000,314.929000,480.689000L314.931000,480.687000C314.962000,480.657000,314.978000,480.642000,314.978000,480.642000C314.978000,480.642000,326.685000,491.898000,326.685000,500.747000Z" fill="rgb(201,34,40)" stroke="none" stroke-width="1"/><path id="home_img-path71" d="M314.551000,511.331000L318.833000,505.327000L314.540000,511.990000L314.529000,512.680000C314.229000,512.673000,313.933000,512.659000,313.640000,512.639000L314.101000,503.786000L314.097000,503.717000L314.105000,503.704000L314.149000,502.868000L309.845000,496.188000L314.162000,502.241000L314.172000,502.419000L314.521000,495.730000L310.837000,488.827000L314.566000,494.556000L314.929000,480.689000L314.931000,480.642000L314.931000,480.687000L314.870000,491.622000L318.538000,487.287000L314.855000,492.565000L314.758000,498.553000L318.183000,492.806000L314.744000,499.434000L314.690000,502.764000L319.661000,494.764000L314.671000,503.926000L314.551000,511.331000Z" fill="rgb(63,61,86)" stroke="none" stroke-width="1"/><path id="home_img-path72" d="M577.684000,388.317000C577.684000,457.699000,546.293000,512.433000,507.636000,513.944000C457.224000,515.915000,391.338000,465.471000,437.588000,388.317000C473.227000,328.863000,468.949000,262.689000,507.636000,262.689000C546.322000,262.689000,577.684000,318.935000,577.684000,388.317000Z" fill="rgb(242,242,242)" stroke="none" stroke-width="1"/><path id="home_img-path73" d="M537.016000,425.202000L437.139000,425.202000L437.139000,512.245000L537.016000,512.245000L537.016000,425.202000Z" fill="rgb(201,34,40)" stroke="none" stroke-width="1"/><g id="home_img-path74_tr" transform="translate(509.252716,242.597450) rotate(0)"><path id="home_img-path74" d="M509.255000,233C507.059000,233,504.931000,233.759000,503.226000,235.148000C501.522000,236.537000,500.346000,238.473000,499.896000,240.629000C499.446000,242.786000,499.749000,245.032000,500.754000,246.991000C501.760000,248.950000,503.406000,250.502000,505.417000,251.386000C505.377000,250.648000,505.433000,249.908000,505.584000,249.184000C505.767000,248.405000,506.813000,243.954000,506.813000,243.954000C506.604000,243.476000,506.499000,242.959000,506.506000,242.437000C506.506000,241.015000,507.325000,239.953000,508.350000,239.953000C509.221000,239.953000,509.639000,240.608000,509.639000,241.392000C509.639000,242.270000,509.080000,243.581000,508.794000,244.798000C508.737000,245.023000,508.733000,245.259000,508.784000,245.486000C508.834000,245.713000,508.937000,245.925000,509.084000,246.104000C509.231000,246.284000,509.419000,246.426000,509.631000,246.520000C509.843000,246.614000,510.074000,246.656000,510.305000,246.644000C512.115000,246.644000,513.336000,244.309000,513.336000,241.542000C513.336000,239.439000,511.923000,237.866000,509.357000,237.866000C508.743000,237.842000,508.131000,237.944000,507.557000,238.164000C506.984000,238.385000,506.461000,238.721000,506.020000,239.151000C505.580000,239.581000,505.231000,240.096000,504.995000,240.665000C504.760000,241.235000,504.642000,241.847000,504.649000,242.463000C504.620000,243.147000,504.846000,243.817000,505.281000,244.344000C505.357000,244.407000,505.411000,244.493000,505.436000,244.589000C505.461000,244.685000,505.454000,244.787000,505.417000,244.879000C505.370000,245.055000,505.268000,245.479000,505.221000,245.650000C505.213000,245.702000,505.192000,245.751000,505.162000,245.794000C505.131000,245.836000,505.090000,245.870000,505.043000,245.894000C504.997000,245.917000,504.945000,245.929000,504.893000,245.928000C504.840000,245.928000,504.789000,245.915000,504.743000,245.890000C503.407000,245.342000,502.784000,243.877000,502.784000,242.223000C502.784000,239.499000,505.076000,236.230000,509.618000,236.230000C513.268000,236.230000,515.671000,238.882000,515.671000,241.726000C515.671000,245.492000,513.583000,248.302000,510.510000,248.302000C509.477000,248.302000,508.508000,247.741000,508.175000,247.107000C508.175000,247.107000,507.620000,249.317000,507.500000,249.746000C507.280000,250.474000,506.956000,251.166000,506.540000,251.802000C507.855000,252.192000,509.238000,252.293000,510.596000,252.099000C511.954000,251.905000,513.254000,251.421000,514.409000,250.678000C515.563000,249.936000,516.545000,248.953000,517.288000,247.796000C518.031000,246.639000,518.517000,245.336000,518.714000,243.974000C518.910000,242.612000,518.813000,241.223000,518.428000,239.903000C518.043000,238.582000,517.379000,237.360000,516.482000,236.319000C515.585000,235.278000,514.475000,234.443000,513.228000,233.870000C511.981000,233.298000,510.626000,233.001000,509.255000,233L509.255000,233Z" transform="translate(-509.252716,-242.597450)" fill="rgb(63,61,86)" stroke="none" stroke-width="1"/></g><g id="home_img-path75_tr" transform="translate(593.584503,308.675858) rotate(0)"><path id="home_img-path75" d="M603.657000,302.400000C602.902000,302.734000,602.102000,302.955000,601.283000,303.055000C602.147000,302.536000,602.793000,301.720000,603.102000,300.759000C602.291000,301.243000,601.403000,301.584000,600.476000,301.766000C599.910000,301.157000,599.174000,300.734000,598.365000,300.552000C597.556000,300.369000,596.711000,300.435000,595.939000,300.741000C595.168000,301.047000,594.506000,301.579000,594.040000,302.267000C593.574000,302.956000,593.325000,303.769000,593.326000,304.602000C593.325000,304.920000,593.361000,305.238000,593.433000,305.548000C591.789000,305.467000,590.180000,305.038000,588.712000,304.290000C587.244000,303.542000,585.949000,302.492000,584.913000,301.209000C584.384000,302.123000,584.222000,303.206000,584.461000,304.236000C584.700000,305.266000,585.321000,306.165000,586.197000,306.752000C585.539000,306.736000,584.894000,306.558000,584.319000,306.234000L584.319000,306.285000C584.319000,307.243000,584.649000,308.172000,585.254000,308.914000C585.858000,309.656000,586.700000,310.165000,587.636000,310.355000C587.281000,310.451000,586.915000,310.500000,586.548000,310.500000C586.287000,310.501000,586.026000,310.475000,585.771000,310.423000C586.035000,311.248000,586.549000,311.969000,587.242000,312.486000C587.934000,313.003000,588.771000,313.290000,589.634000,313.306000C588.170000,314.461000,586.361000,315.087000,584.499000,315.084000C584.169000,315.084000,583.840000,315.064000,583.512000,315.024000C585.395000,316.253000,587.593000,316.905000,589.839000,316.901000C597.450000,316.901000,601.608000,310.573000,601.608000,305.086000C601.608000,304.906000,601.603000,304.726000,601.595000,304.550000C602.404000,303.962000,603.102000,303.234000,603.657000,302.400000Z" transform="translate(-593.584503,-308.675858)" fill="rgb(63,61,86)" stroke="none" stroke-width="1"/></g><g id="home_img-path76_tr" transform="translate(437.293991,253.440002) rotate(0)"><path id="home_img-path76" d="M444.585000,245.215000L430.003000,245.215000C429.763000,245.215000,429.533000,245.311000,429.363000,245.481000C429.194000,245.651000,429.098000,245.882000,429.098000,246.123000L429.098000,260.757000C429.098000,260.998000,429.194000,261.228000,429.363000,261.399000C429.533000,261.569000,429.763000,261.665000,430.003000,261.665000L437.294000,261.665000L437.294000,255.153000L435.335000,255.153000L435.335000,252.754000L437.294000,252.754000L437.294000,250.981000C437.294000,248.856000,438.763000,247.699000,440.654000,247.699000C441.559000,247.699000,442.532000,247.768000,442.758000,247.798000L442.758000,250.017000L441.251000,250.017000C440.223000,250.017000,440.026000,250.505000,440.026000,251.225000L440.026000,252.754000L442.477000,252.754000L442.156000,255.153000L440.026000,255.153000L440.026000,261.665000L444.585000,261.665000C444.825000,261.665000,445.055000,261.569000,445.225000,261.399000C445.395000,261.228000,445.490000,260.998000,445.490000,260.757000L445.490000,246.123000C445.490000,245.882000,445.395000,245.651000,445.225000,245.481000C445.055000,245.311000,444.825000,245.215000,444.585000,245.215000Z" transform="translate(-437.293991,-253.440002)" fill="rgb(63,61,86)" stroke="none" stroke-width="1"/></g><g id="home_img-path77_tr" transform="translate(443.008987,312.983002) rotate(0)"><path id="home_img-path77" d="M446.424000,306.129000C447.329000,306.131000,448.196000,306.493000,448.836000,307.135000C449.476000,307.778000,449.836000,308.648000,449.839000,309.556000L449.839000,316.410000C449.836000,317.318000,449.476000,318.188000,448.836000,318.830000C448.196000,319.473000,447.329000,319.834000,446.424000,319.837000L439.594000,319.837000C438.689000,319.834000,437.822000,319.473000,437.182000,318.830000C436.542000,318.188000,436.182000,317.318000,436.179000,316.410000L436.179000,309.556000C436.182000,308.648000,436.542000,307.778000,437.182000,307.135000C437.822000,306.493000,438.689000,306.131000,439.594000,306.129000L446.424000,306.129000ZM446.424000,304.758000L439.594000,304.758000C438.327000,304.762000,437.113000,305.268000,436.217000,306.167000C435.322000,307.066000,434.817000,308.285000,434.813000,309.556000L434.813000,316.410000C434.817000,317.681000,435.322000,318.900000,436.217000,319.799000C437.113000,320.698000,438.327000,321.204000,439.594000,321.208000L446.424000,321.208000C447.691000,321.204000,448.905000,320.698000,449.800000,319.799000C450.696000,318.900000,451.201000,317.681000,451.205000,316.410000L451.205000,309.556000C451.201000,308.285000,450.696000,307.066000,449.800000,306.167000C448.905000,305.268000,447.691000,304.762000,446.424000,304.758000Z" transform="translate(-443.008987,-312.983002)" fill="rgb(63,61,86)" stroke="none" stroke-width="1"/></g><g id="home_img-path78_tr" transform="translate(443.692139,312.297485) rotate(360)"><path id="home_img-path78" d="M447.448000,309.556000C447.246000,309.556000,447.048000,309.496000,446.879000,309.383000C446.711000,309.270000,446.579000,309.109000,446.502000,308.921000C446.424000,308.733000,446.404000,308.527000,446.444000,308.327000C446.483000,308.128000,446.581000,307.945000,446.724000,307.801000C446.867000,307.657000,447.050000,307.559000,447.249000,307.519000C447.447000,307.480000,447.653000,307.500000,447.840000,307.578000C448.028000,307.656000,448.188000,307.787000,448.300000,307.957000C448.413000,308.126000,448.473000,308.324000,448.473000,308.528000C448.473000,308.663000,448.447000,308.797000,448.396000,308.922000C448.344000,309.046000,448.269000,309.160000,448.174000,309.255000C448.078000,309.351000,447.965000,309.427000,447.841000,309.478000C447.716000,309.530000,447.583000,309.556000,447.448000,309.556000ZM443.009000,310.241000C443.549000,310.241000,444.077000,310.402000,444.527000,310.703000C444.976000,311.005000,445.326000,311.433000,445.533000,311.934000C445.740000,312.435000,445.794000,312.986000,445.688000,313.518000C445.583000,314.050000,445.323000,314.538000,444.941000,314.922000C444.559000,315.305000,444.072000,315.566000,443.542000,315.672000C443.012000,315.778000,442.463000,315.723000,441.963000,315.516000C441.464000,315.308000,441.038000,314.957000,440.737000,314.506000C440.437000,314.055000,440.277000,313.525000,440.277000,312.983000C440.278000,312.256000,440.566000,311.559000,441.078000,311.045000C441.590000,310.531000,442.285000,310.242000,443.009000,310.241000ZM443.009000,308.870000C442.198000,308.870000,441.406000,309.112000,440.732000,309.564000C440.058000,310.015000,439.533000,310.658000,439.223000,311.409000C438.913000,312.161000,438.832000,312.988000,438.990000,313.785000C439.148000,314.583000,439.538000,315.316000,440.111000,315.891000C440.684000,316.466000,441.414000,316.858000,442.209000,317.016000C443.004000,317.175000,443.828000,317.094000,444.577000,316.782000C445.326000,316.471000,445.966000,315.944000,446.416000,315.268000C446.867000,314.591000,447.107000,313.796000,447.107000,312.983000C447.107000,311.892000,446.675000,310.846000,445.906000,310.075000C445.138000,309.304000,444.096000,308.871000,443.009000,308.870000Z" transform="translate(-443.692139,-312.297485)" fill="rgb(63,61,86)" stroke="none" stroke-width="1"/></g><g id="home_img-path79_tr" transform="translate(558.828766,245.362297) rotate(0)"><path id="home_img-path79" d="M565.712000,237.140000L552.035000,237.140000C551.859000,237.132000,551.683000,237.158000,551.518000,237.218000C551.352000,237.278000,551.200000,237.370000,551.070000,237.489000C550.940000,237.608000,550.834000,237.751000,550.760000,237.911000C550.685000,238.071000,550.642000,238.244000,550.635000,238.421000L550.635000,252.176000C550.644000,252.546000,550.795000,252.899000,551.055000,253.161000C551.315000,253.423000,551.666000,253.575000,552.035000,253.586000L565.708000,253.586000C566.067000,253.572000,566.407000,253.416000,566.653000,253.152000C566.899000,252.888000,567.032000,252.538000,567.022000,252.176000L567.022000,238.421000C567.025000,238.249000,566.993000,238.078000,566.928000,237.919000C566.862000,237.760000,566.765000,237.616000,566.643000,237.497000C566.520000,237.377000,566.374000,237.283000,566.214000,237.222000C566.054000,237.160000,565.883000,237.133000,565.712000,237.140000ZM555.714000,250.848000L553.367000,250.848000L553.367000,243.523000L555.714000,243.523000L555.714000,250.848000ZM554.622000,242.409000L554.605000,242.409000C554.267000,242.407000,553.944000,242.270000,553.706000,242.029000C553.468000,241.789000,553.336000,241.463000,553.337000,241.124000C553.338000,240.785000,553.473000,240.460000,553.712000,240.221000C553.951000,239.982000,554.275000,239.847000,554.613000,239.847000C554.951000,239.847000,555.275000,239.982000,555.514000,240.221000C555.753000,240.460000,555.888000,240.785000,555.890000,241.124000C555.891000,241.463000,555.758000,241.789000,555.520000,242.029000C555.283000,242.270000,554.959000,242.407000,554.622000,242.409000ZM564.295000,250.848000L561.947000,250.848000L561.947000,246.843000C561.947000,245.883000,561.605000,245.228000,560.756000,245.228000C560.490000,245.230000,560.232000,245.315000,560.016000,245.471000C559.801000,245.627000,559.638000,245.846000,559.552000,246.098000C559.490000,246.284000,559.462000,246.480000,559.471000,246.676000L559.471000,250.848000L557.123000,250.848000L557.123000,243.523000L559.471000,243.523000L559.471000,244.543000C559.685000,244.171000,559.994000,243.865000,560.367000,243.655000C560.739000,243.446000,561.161000,243.341000,561.588000,243.352000C563.129000,243.352000,564.295000,244.371000,564.295000,246.569000L564.295000,250.848000Z" transform="translate(-558.828766,-245.362297)" fill="rgb(63,61,86)" stroke="none" stroke-width="1"/></g><path id="home_img-path80" d="M500.908000,338.590000C500.908000,338.590000,517.525000,339.043000,520.270000,340.045000C523.015000,341.047000,524.242000,348.213000,524.242000,348.213000L511.339000,352.282000L501.689000,351.734000L494.426000,352.249000L498.481000,341.590000L500.908000,338.590000Z" fill="rgb(47,46,65)" stroke="none" stroke-width="1"/><path id="home_img-path81" d="M501.624000,333.117000C501.624000,333.117000,502.718000,337.355000,500.291000,340.356000C497.865000,343.356000,510.723000,354.049000,510.723000,354.049000L517.506000,352.879000C517.506000,352.879000,516.011000,339.857000,518.019000,336.560000C520.027000,333.263000,501.624000,333.117000,501.624000,333.117000Z" fill="rgb(159,97,106)" stroke="none" stroke-width="1"/><path id="home_img-path82" d="M501.624000,333.117000C501.624000,333.117000,502.718000,337.355000,500.291000,340.356000C497.865000,343.356000,510.723000,354.049000,510.723000,354.049000L517.506000,352.879000C517.506000,352.879000,516.011000,339.857000,518.019000,336.560000C520.027000,333.263000,501.624000,333.117000,501.624000,333.117000Z" opacity="0.1" fill="rgb(0,0,0)" stroke="none" stroke-width="1"/><path id="home_img-path83" d="M546.737000,457.020000L531.770000,476.938000L541.984000,482.922000L556.041000,459.841000L546.737000,457.020000Z" fill="rgb(159,97,106)" stroke="none" stroke-width="1"/><path id="home_img-path84" d="M536.238000,477.274000C536.238000,477.274000,530.727000,470.847000,530.972000,472.280000C531.218000,473.713000,527.051000,485.867000,530.928000,487.042000C534.805000,488.218000,568.051000,491.336000,568.509000,487.569000C568.966000,483.801000,558.591000,481.164000,558.591000,481.164000C558.591000,481.164000,552.427000,475.219000,551.060000,475.824000C549.693000,476.428000,536.238000,477.274000,536.238000,477.274000Z" fill="rgb(47,46,65)" stroke="none" stroke-width="1"/><path id="home_img-path85" d="M543.379000,476.042000L555.333000,496.481000L564.359000,491.236000L552.304000,474.503000L543.379000,476.042000Z" fill="rgb(159,97,106)" stroke="none" stroke-width="1"/><path id="home_img-path86" d="M562.250000,427.417000L558.702000,432.455000C558.702000,432.455000,541.789000,456.029000,543.585000,457.932000C545.381000,459.836000,552.862000,467.029000,556.666000,465.635000C560.471000,464.241000,573.987000,440.147000,573.987000,440.147000L570.461000,426.001000L562.250000,427.417000Z" fill="rgb(47,46,65)" stroke="none" stroke-width="1"/><path id="home_img-path87" d="M489.391000,422.648000C489.391000,422.648000,493.179000,429.741000,502.779000,432.142000C512.380000,434.544000,522.410000,439.453000,522.767000,439.392000C523.124000,439.330000,524.133000,438.787000,524.379000,440.220000C524.624000,441.653000,527.257000,444.150000,527.257000,444.150000C527.257000,444.150000,537.862000,480.314000,541.911000,480.353000C545.961000,480.392000,554.284000,477.481000,554.457000,476.344000C554.630000,475.208000,542.056000,438.277000,541.934000,437.561000L540.461000,428.962000C540.461000,428.962000,557.090000,431.627000,558.641000,432.097000C560.191000,432.567000,573.987000,440.147000,573.987000,440.147000C573.987000,440.147000,588.050000,429.975000,574.896000,419.703000C561.742000,409.431000,539.133000,401.896000,539.133000,401.896000L531.022000,399.606000L523.953000,399.182000L522.913000,395.177000L506.171000,396.146000L488.700000,403.586000L489.391000,422.648000Z" fill="rgb(47,46,65)" stroke="none" stroke-width="1"/><path id="home_img-path88" d="M511.487000,341.553000C518.689000,341.553000,524.528000,335.693000,524.528000,328.465000C524.528000,321.238000,518.689000,315.378000,511.487000,315.378000C504.285000,315.378000,498.446000,321.238000,498.446000,328.465000C498.446000,335.693000,504.285000,341.553000,511.487000,341.553000Z" fill="rgb(159,97,106)" stroke="none" stroke-width="1"/><path id="home_img-path89" d="M499.689000,338.984000L501.257000,338.714000C501.257000,338.714000,504.090000,349.660000,512.854000,351.468000C512.854000,351.468000,517.178000,346.269000,516.993000,345.392000C516.809000,344.515000,520.418000,339.835000,522.337000,342.455000C524.256000,345.075000,521.868000,391.226000,523.480000,392.054000C525.092000,392.883000,528.551000,393.762000,525.767000,396.824000C522.984000,399.886000,511.928000,404.006000,509.479000,402.584000C507.030000,401.162000,502.026000,389.115000,499.862000,385.062000C497.697000,381.009000,494.233000,367.221000,494.233000,367.221000C494.233000,367.221000,489.810000,352.123000,492.532000,348.703000C495.254000,345.282000,499.689000,338.984000,499.689000,338.984000Z" fill="rgb(208,205,225)" stroke="none" stroke-width="1"/><path id="home_img-path90" d="M512.170000,395.800000C511.878000,399.015000,511.379000,402.208000,510.676000,405.358000C510.036000,407.921000,509.292000,409.468000,508.442000,409.402000C506.273000,409.239000,505.288000,412.431000,504.780000,416.111000C504.236000,420.014000,504.236000,424.468000,503.938000,426.041000C503.544000,428.121000,501.021000,429.708000,495.979000,429.242000C492.976000,428.899000,490.029000,428.174000,487.209000,427.083000C480.402000,424.599000,480.603000,404.456000,481.742000,389.510000C482.438000,380.348000,483.485000,373.134000,483.485000,373.134000C483.485000,373.134000,481.418000,366.944000,480.756000,362.702000C480.625000,361.928000,480.559000,361.144000,480.559000,360.359000C480.660000,356.653000,487.402000,346.639000,491.476000,340.400000C495.554000,334.162000,501.117000,338.739000,501.117000,338.739000L499.181000,344.603000C499.181000,344.603000,502.182000,349.250000,502.204000,353.672000C502.226000,358.095000,509.388000,361.286000,511.959000,363.427000C513.576000,364.773000,513.536000,382.731000,512.170000,395.800000Z" fill="rgb(47,46,65)" stroke="none" stroke-width="1"/><path id="home_img-path91" d="M517.832000,340.834000C517.832000,340.834000,518.302000,341.392000,520.454000,341.120000C523.035000,340.794000,526.583000,341.690000,527.407000,344.162000C528.919000,348.697000,533.181000,367.143000,533.181000,367.143000C533.181000,367.143000,534.955000,388.231000,535.753000,392.888000C536.550000,397.546000,536.154000,401.672000,536.941000,404.118000C537.727000,406.564000,529.176000,399.555000,526.024000,400.468000C522.872000,401.380000,520.848000,389.557000,521.244000,385.432000C521.640000,381.306000,521.974000,376.822000,520.881000,372.584000C519.788000,368.346000,521.726000,357.130000,521.653000,354.561000C521.581000,351.991000,514.704000,345.515000,517.832000,340.834000Z" fill="rgb(47,46,65)" stroke="none" stroke-width="1"/><path id="home_img-path92" d="M527.060000,406.376000C527.060000,406.376000,540.867000,413.935000,542.189000,424.695000C543.510000,435.455000,523.721000,414.277000,523.721000,414.277000L527.060000,406.376000Z" fill="rgb(159,97,106)" stroke="none" stroke-width="1"/><path id="home_img-path93" d="M534.942000,398.745000C534.942000,398.745000,539.173000,420.147000,545.764000,419.010000C552.355000,417.874000,542.082000,397.514000,542.082000,397.514000L534.942000,398.745000Z" fill="rgb(159,97,106)" stroke="none" stroke-width="1"/><path id="home_img-path94" d="M557.514000,492.047000C557.514000,492.047000,554.139000,495.949000,553.302000,495.356000C552.466000,494.762000,550.541000,502.840000,552.276000,504.385000C554.011000,505.930000,560.694000,508.466000,560.766000,511.036000C560.839000,513.605000,578.762000,513.096000,579.403000,510.403000C580.045000,507.711000,577.155000,501.569000,575.125000,500.444000C573.094000,499.319000,565.586000,488.963000,565.586000,488.963000C565.586000,488.963000,559.706000,489.825000,557.514000,492.047000Z" fill="rgb(47,46,65)" stroke="none" stroke-width="1"/><path id="home_img-path95" d="M524.860000,419.465000C521.658000,417.196000,512.717000,416.634000,504.780000,416.111000C501.297000,415.886000,498.007000,415.667000,495.480000,415.310000C493.044000,414.972000,490.854000,412.739000,488.909000,409.411000C485.961000,404.369000,483.578000,396.807000,481.742000,389.510000C482.439000,380.348000,483.486000,373.134000,483.486000,373.134000C483.486000,373.134000,481.418000,366.944000,480.756000,362.702000C481.223000,362.051000,481.823000,361.508000,482.517000,361.111000C490.937000,357.484000,498.975000,393.176000,499.996000,398.777000C500.014000,398.869000,500.027000,398.957000,500.040000,399.032000C500.535000,401.915000,505.884000,404.382000,510.676000,405.358000C513.628000,405.960000,516.375000,405.999000,517.641000,405.217000C520.966000,403.168000,531.190000,411.367000,531.966000,411.600000C532.741000,411.838000,529.460000,422.731000,524.860000,419.465000Z" opacity="0.1" fill="rgb(0,0,0)" stroke="none" stroke-width="1"/><path id="home_img-path96" d="M482.519000,358.913000C482.519000,358.913000,476.399000,361.813000,479.088000,375.366000C481.777000,388.919000,487.194000,411.961000,495.477000,413.114000C503.761000,414.267000,520.256000,414.004000,524.858000,417.268000C529.461000,420.532000,532.741000,409.638000,531.965000,409.403000C531.190000,409.167000,520.965000,400.972000,517.640000,403.021000C514.315000,405.070000,500.838000,401.493000,500.040000,396.835000C499.243000,392.177000,491.076000,355.224000,482.519000,358.913000Z" fill="rgb(47,46,65)" stroke="none" stroke-width="1"/><path id="home_img-path97" d="M526.615000,352.414000L533.341000,368.075000C533.341000,368.075000,534.018000,367.736000,534.804000,370.182000C535.591000,372.629000,535.959000,374.778000,537.337000,376.385000C538.715000,377.992000,544.845000,400.910000,545.030000,401.985000C545.214000,403.060000,536.562000,406.765000,534.629000,403.779000C532.696000,400.793000,526.615000,352.414000,526.615000,352.414000Z" fill="rgb(47,46,65)" stroke="none" stroke-width="1"/><path id="home_img-path98" d="M504.067000,328.283000C504.567000,328.149000,504.641000,327.483000,504.657000,326.965000C504.747000,324.186000,506.414000,321.335000,509.065000,320.526000C510.082000,320.246000,511.146000,320.187000,512.188000,320.354000C513.674000,320.552000,515.110000,321.033000,516.417000,321.770000C517.108000,322.159000,517.785000,322.628000,518.568000,322.747000C519.085000,322.826000,521.324000,323.479000,521.839000,323.571000C522.971000,323.773000,524.023000,324.789000,525.109000,324.411000C526.148000,324.049000,526.378000,322.699000,526.404000,321.595000C526.461000,319.081000,524.559000,315.601000,522.884000,313.731000C521.612000,312.311000,519.698000,311.656000,517.827000,311.315000C515.641000,310.963000,513.426000,310.827000,511.213000,310.911000C508.219000,310.965000,505.141000,311.197000,502.441000,312.497000C499.740000,313.798000,497.472000,316.386000,497.343000,319.389000C497.316000,320.014000,497.380000,320.642000,497.328000,321.266000C497.200000,322.788000,496.394000,324.163000,496.017000,325.643000C495.746000,326.728000,495.706000,327.859000,495.898000,328.961000C496.090000,330.063000,496.510000,331.113000,497.131000,332.042000C498.133000,333.522000,499.708000,334.861000,499.650000,336.649000L501.823000,334.390000C502.148000,334.142000,502.378000,333.789000,502.474000,333.390000C502.571000,332.992000,502.528000,332.573000,502.354000,332.202000L501.585000,329.192000C501.387000,328.654000,501.364000,328.068000,501.518000,327.516000C502.343000,325.471000,503.234000,328.507000,504.067000,328.283000Z" fill="rgb(47,46,65)" stroke="none" stroke-width="1"/><path id="home_img-path99" d="M404.817000,417.674000C404.817000,459.399000,380.100000,473.967000,349.610000,473.967000C319.120000,473.967000,294.403000,459.399000,294.403000,417.674000C294.403000,375.950000,349.610000,322.870000,349.610000,322.870000C349.610000,322.870000,404.817000,375.950000,404.817000,417.674000Z" fill="rgb(242,242,242)" stroke="none" stroke-width="1"/><path id="home_img-path100" d="M347.599000,467.584000L348.165000,432.665000L371.695000,389.465000L348.253000,427.187000L348.507000,411.486000L364.725000,380.231000L348.575000,407.331000L349.032000,379.091000L366.397000,354.209000L349.104000,374.651000L349.389000,322.870000L347.594000,391.418000L347.741000,388.591000L330.086000,361.470000L347.459000,394.019000L345.814000,425.558000L345.764000,424.721000L325.411000,396.180000L345.703000,427.678000L345.497000,431.622000L345.460000,431.681000L345.477000,432.005000L341.303000,512.022000L346.880000,512.022000L347.549000,470.691000L367.791000,439.271000L347.599000,467.584000Z" fill="rgb(63,61,86)" stroke="none" stroke-width="1"/></g><clipPath id="home_img-clip1"><rect id="home_img-rect1" width="332" height="281" rx="0" ry="0" transform="matrix(1 0 0 1 290 233)" fill="rgb(255,255,255)" stroke="none" stroke-width="1"/></clipPath></g></g><clipPath id="home_img-clip0"><rect id="home_img-rect2" width="605" height="503" rx="0" ry="0" transform="matrix(1 0 0 1 0.76999999999998 0)" fill="rgb(255,255,255)" stroke="none" stroke-width="1"/></clipPath></g><path id="home_img-path101" d="M294,249.650000L283.050000,249.650000L283.050000,247.520000L288.165000,247.520000L283.050000,243.350000L283.050000,240.905000L287.820000,244.805000L294,239.960000L294,242.555000L288.885000,246.560000L288.885000,247.520000L294,247.520000L294,249.650000ZM294.060000,238.737000L282.975000,238.737000L282.975000,234.777000C282.975000,233.787000,283.125000,232.927000,283.425000,232.197000C283.715000,231.457000,284.115000,230.842000,284.625000,230.352000C285.125000,229.852000,285.695000,229.482000,286.335000,229.242000C286.975000,228.992000,287.640000,228.867000,288.330000,228.867000L288.660000,228.867000C289.320000,228.867000,289.970000,228.992000,290.610000,229.242000C291.250000,229.482000,291.830000,229.852000,292.350000,230.352000C292.870000,230.842000,293.285000,231.457000,293.595000,232.197000C293.905000,232.927000,294.060000,233.787000,294.060000,234.777000L294.060000,238.737000ZM284.955000,234.642000L284.955000,236.607000L292.080000,236.607000L292.080000,234.642000C292.080000,233.892000,291.930000,233.247000,291.630000,232.707000C291.320000,232.167000,290.895000,231.752000,290.355000,231.462000C289.815000,231.172000,289.195000,231.027000,288.495000,231.027000C287.405000,231.027000,286.545000,231.347000,285.915000,231.987000C285.275000,232.627000,284.955000,233.512000,284.955000,234.642000ZM294.285000,223.810000C294.285000,224.610000,294.130000,225.310000,293.820000,225.910000C293.510000,226.500000,293.055000,226.960000,292.455000,227.290000C291.855000,227.620000,291.120000,227.785000,290.250000,227.785000L289.770000,227.785000L289.770000,225.670000L290.430000,225.670000C291.010000,225.670000,291.470000,225.500000,291.810000,225.160000C292.140000,224.820000,292.305000,224.375000,292.305000,223.825000C292.305000,223.265000,292.140000,222.820000,291.810000,222.490000C291.470000,222.150000,291.010000,221.980000,290.430000,221.980000L284.925000,221.980000L284.925000,226.450000L283.050000,226.450000L283.050000,219.850000L290.250000,219.850000C291.560000,219.850000,292.560000,220.215000,293.250000,220.945000C293.940000,221.665000,294.285000,222.620000,294.285000,223.810000ZM294,210.861000L283.050000,210.861000L283.050000,208.731000L292.125000,208.731000L292.125000,204.306000L294,204.306000L294,210.861000ZM294.210000,200.425000C294.210000,201.325000,293.980000,202.045000,293.520000,202.585000C293.060000,203.115000,292.415000,203.380000,291.585000,203.380000C290.695000,203.380000,290.040000,203.060000,289.620000,202.420000C289.190000,201.770000,288.975000,200.900000,288.975000,199.810000L288.975000,198.145000L288.900000,198.145000C287.970000,198.145000,287.505000,198.615000,287.505000,199.555000C287.505000,199.805000,287.510000,200.105000,287.520000,200.455000C287.530000,200.805000,287.545000,201.160000,287.565000,201.520000C287.575000,201.870000,287.590000,202.185000,287.610000,202.465000L285.840000,202.465000C285.810000,202.125000,285.785000,201.720000,285.765000,201.250000C285.745000,200.770000,285.735000,200.330000,285.735000,199.930000C285.735000,198.680000,285.990000,197.740000,286.500000,197.110000C287,196.470000,287.815000,196.150000,288.945000,196.150000L294,196.150000L294,197.800000L292.440000,197.800000C293.620000,198.170000,294.210000,199.045000,294.210000,200.425000ZM292.725000,199.840000C292.725000,199.560000,292.675000,199.295000,292.575000,199.045000C292.465000,198.795000,292.285000,198.590000,292.035000,198.430000C291.775000,198.260000,291.425000,198.165000,290.985000,198.145000L290.220000,198.145000L290.220000,199.840000C290.220000,200.320000,290.340000,200.690000,290.580000,200.950000C290.810000,201.200000,291.110000,201.325000,291.480000,201.325000C291.860000,201.325000,292.165000,201.200000,292.395000,200.950000C292.615000,200.690000,292.725000,200.320000,292.725000,199.840000ZM294,193.917000L285.855000,193.917000L285.855000,192.267000L287.865000,192.267000C286.355000,191.917000,285.600000,190.987000,285.600000,189.477000L285.600000,189.387000C285.600000,188.417000,285.915000,187.682000,286.545000,187.182000C287.175000,186.682000,288.105000,186.432000,289.335000,186.432000L294,186.432000L294,188.517000L289.155000,188.517000C288.655000,188.517000,288.250000,188.662000,287.940000,188.952000C287.630000,189.242000,287.475000,189.632000,287.475000,190.122000C287.475000,190.632000,287.635000,191.047000,287.955000,191.367000C288.275000,191.677000,288.695000,191.832000,289.215000,191.832000L294,191.832000L294,193.917000ZM294,184.190000L283.050000,184.190000L283.050000,182.105000L289.785000,182.105000L285.855000,178.970000L285.855000,176.795000L289.320000,179.570000L294,176.135000L294,178.490000L290.190000,181.220000L290.190000,182.105000L294,182.105000L294,184.190000ZM294.210000,172.739000C294.210000,173.639000,293.980000,174.359000,293.520000,174.899000C293.060000,175.429000,292.415000,175.694000,291.585000,175.694000C290.695000,175.694000,290.040000,175.374000,289.620000,174.734000C289.190000,174.084000,288.975000,173.214000,288.975000,172.124000L288.975000,170.459000L288.900000,170.459000C287.970000,170.459000,287.505000,170.929000,287.505000,171.869000C287.505000,172.119000,287.510000,172.419000,287.520000,172.769000C287.530000,173.119000,287.545000,173.474000,287.565000,173.834000C287.575000,174.184000,287.590000,174.499000,287.610000,174.779000L285.840000,174.779000C285.810000,174.439000,285.785000,174.034000,285.765000,173.564000C285.745000,173.084000,285.735000,172.644000,285.735000,172.244000C285.735000,170.994000,285.990000,170.054000,286.500000,169.424000C287,168.784000,287.815000,168.464000,288.945000,168.464000L294,168.464000L294,170.114000L292.440000,170.114000C293.620000,170.484000,294.210000,171.359000,294.210000,172.739000ZM292.725000,172.154000C292.725000,171.874000,292.675000,171.609000,292.575000,171.359000C292.465000,171.109000,292.285000,170.904000,292.035000,170.744000C291.775000,170.574000,291.425000,170.479000,290.985000,170.459000L290.220000,170.459000L290.220000,172.154000C290.220000,172.634000,290.340000,173.004000,290.580000,173.264000C290.810000,173.514000,291.110000,173.639000,291.480000,173.639000C291.860000,173.639000,292.165000,173.514000,292.395000,173.264000C292.615000,173.004000,292.725000,172.634000,292.725000,172.154000ZM296.730000,160.894000C295.820000,161.634000,294.790000,162.229000,293.640000,162.679000C292.480000,163.119000,291.090000,163.339000,289.470000,163.339000C288.390000,163.339000,287.425000,163.234000,286.575000,163.024000C285.715000,162.814000,284.940000,162.524000,284.250000,162.154000C283.560000,161.774000,282.930000,161.339000,282.360000,160.849000L282.360000,158.524000C283.350000,159.344000,284.415000,160.009000,285.555000,160.519000C286.695000,161.029000,288,161.284000,289.470000,161.284000C290.930000,161.284000,292.245000,161.064000,293.415000,160.624000C294.585000,160.174000,295.690000,159.474000,296.730000,158.524000L296.730000,160.894000ZM294,157.028000L282.975000,157.028000L282.975000,153.248000C282.975000,151.868000,283.310000,150.803000,283.980000,150.053000C284.640000,149.293000,285.540000,148.913000,286.680000,148.913000L286.920000,148.913000C288.060000,148.913000,288.965000,149.293000,289.635000,150.053000C290.305000,150.803000,290.640000,151.868000,290.640000,153.248000L290.640000,154.898000L294,154.898000L294,157.028000ZM284.820000,153.068000L284.820000,154.898000L288.795000,154.898000L288.795000,153.068000C288.795000,152.428000,288.610000,151.938000,288.240000,151.598000C287.870000,151.248000,287.390000,151.073000,286.800000,151.073000C286.210000,151.073000,285.735000,151.248000,285.375000,151.598000C285.005000,151.938000,284.820000,152.428000,284.820000,153.068000ZM294,145.494000L285.855000,148.044000L285.855000,145.899000L292.290000,143.979000L292.290000,143.619000L285.855000,141.954000L285.855000,139.944000L294,142.149000L294,145.494000ZM294.105000,134.683000C294.105000,135.433000,294.010000,136.053000,293.820000,136.543000C293.620000,137.033000,293.290000,137.398000,292.830000,137.638000C292.370000,137.868000,291.740000,137.983000,290.940000,137.983000L287.385000,137.983000L287.385000,139.273000L285.855000,139.273000L285.855000,137.983000L283.560000,137.968000L283.560000,136.018000L285.855000,136.033000L285.855000,133.513000L287.385000,133.513000L287.385000,136.033000L291.075000,136.033000C291.475000,136.033000,291.785000,135.928000,292.005000,135.718000C292.215000,135.498000,292.320000,135.188000,292.320000,134.788000L292.320000,133.513000L294.105000,133.513000L294.105000,134.683000ZM296.730000,130.575000C295.820000,129.835000,294.790000,129.245000,293.640000,128.805000C292.480000,128.355000,291.090000,128.130000,289.470000,128.130000C288.390000,128.130000,287.425000,128.235000,286.575000,128.445000C285.715000,128.655000,284.940000,128.950000,284.250000,129.330000C283.560000,129.700000,282.930000,130.130000,282.360000,130.620000L282.360000,132.945000C283.350000,132.125000,284.415000,131.460000,285.555000,130.950000C286.695000,130.440000,288,130.185000,289.470000,130.185000C290.930000,130.185000,292.245000,130.410000,293.415000,130.860000C294.585000,131.300000,295.690000,131.995000,296.730000,132.945000L296.730000,130.575000ZM294,122.707000L283.050000,122.707000L283.050000,120.577000L292.125000,120.577000L292.125000,116.152000L294,116.152000L294,122.707000ZM294.105000,111.246000C294.105000,111.996000,294.010000,112.616000,293.820000,113.106000C293.620000,113.596000,293.290000,113.961000,292.830000,114.201000C292.370000,114.431000,291.740000,114.546000,290.940000,114.546000L287.385000,114.546000L287.385000,115.836000L285.855000,115.836000L285.855000,114.546000L283.560000,114.531000L283.560000,112.581000L285.855000,112.596000L285.855000,110.076000L287.385000,110.076000L287.385000,112.596000L291.075000,112.596000C291.475000,112.596000,291.785000,112.491000,292.005000,112.281000C292.215000,112.061000,292.320000,111.751000,292.320000,111.351000L292.320000,110.076000L294.105000,110.076000L294.105000,111.246000ZM294.270000,104.995000C294.270000,105.755000,294.090000,106.430000,293.730000,107.020000C293.360000,107.610000,292.860000,108.075000,292.230000,108.415000C291.600000,108.745000,290.890000,108.910000,290.100000,108.910000L289.785000,108.910000C289.005000,108.910000,288.300000,108.750000,287.670000,108.430000C287.040000,108.110000,286.540000,107.665000,286.170000,107.095000C285.790000,106.515000,285.600000,105.835000,285.600000,105.055000C285.600000,104.475000,285.720000,103.955000,285.960000,103.495000C286.190000,103.025000,286.540000,102.640000,287.010000,102.340000L283.050000,102.340000L283.050000,100.255000L294,100.255000L294,101.905000L292.290000,101.905000C292.950000,102.185000,293.445000,102.600000,293.775000,103.150000C294.105000,103.690000,294.270000,104.305000,294.270000,104.995000ZM292.515000,104.530000C292.515000,104.120000,292.425000,103.745000,292.245000,103.405000C292.055000,103.065000,291.785000,102.795000,291.435000,102.595000C291.085000,102.385000,290.665000,102.280000,290.175000,102.280000L289.575000,102.280000C289.105000,102.280000,288.705000,102.390000,288.375000,102.610000C288.045000,102.820000,287.795000,103.095000,287.625000,103.435000C287.445000,103.775000,287.355000,104.140000,287.355000,104.530000C287.355000,105.210000,287.595000,105.765000,288.075000,106.195000C288.545000,106.615000,289.170000,106.825000,289.950000,106.825000C290.730000,106.825000,291.355000,106.610000,291.825000,106.180000C292.285000,105.750000,292.515000,105.200000,292.515000,104.530000Z" fill="rgb(201,34,40)" stroke="none" stroke-width="1"/></svg>