<?xml version="1.0" encoding="utf-8"?>
<!-- Generator: Adobe Illustrator 19.0.0, SVG Export Plug-In . SVG Version: 6.00 Build 0)  -->
<svg version="1.1" id="svg2" xmlns:svg="http://www.w3.org/2000/svg"
	 xmlns="http://www.w3.org/2000/svg" xmlns:xlink="http://www.w3.org/1999/xlink" x="0px" y="0px" viewBox="-497 259.6 124.5 43.4"
	 style="enable-background:new -497 259.6 124.5 43.4;" xml:space="preserve">
<style type="text/css">
	.st0{fill:#263238;}
	.st1{fill:#42A5F5;}
	.st2{fill:#151B21;}
	.st3{fill:#C82127;}
</style>
<g id="g4" transform="matrix(0.01712,0,0,0.01712,-116.963,48.724999)">
	<path id="path8" class="st0" d="M-18387,13584.5"/>
	<path id="path10" class="st1" d="M-17674.1,13053.1"/>
</g>
<path id="XMLID_4_" class="st2" d="M-492.2,280.1l16.4-20c0.2-0.3,0.5-0.4,0.9-0.4l8.6,0.1c1,0,1.5,1.1,0.9,1.9l-15.5,18.9
	c-0.3,0.4-0.3,1,0,1.4l15.6,18.9c0.6,0.7,0.1,1.9-0.9,1.9h-8.5c-0.3,0-0.7-0.2-0.9-0.4l-16.6-20.7
	C-492.6,281.1-492.6,280.5-492.2,280.1z"/>
<path id="XMLID_3_" class="st3" d="M-438.8,259.7h-8.4c0,2.7,0,5.5,0,8.2h8.2c7.4,0,13,5.5,13,13.5c0,7.9-5.3,13.4-12.6,13.4h-8.6
	c0,2.7,0,5.5,0,8.2h8c13.7,0,23.1-8.9,23.1-21.6C-416.1,268.6-425.4,259.7-438.8,259.7z"/>
<path id="XMLID_2_" class="st2" d="M-388.6,259.6v25.6c0,1.2-0.1,3.5-1.7,5.3c-2,2.2-5.3,2.5-6.3,2.6c-1.6,0.2-2.4-0.1-2.7,0.6
	c-0.8,2.1-0.7,5.6,0.5,8.2c0.7,1.5,3.1,1.1,5.5,0.7c8.9-1.6,14.7-5.7,14.7-17.1v-25.9C-381.9,259.6-385.3,259.6-388.6,259.6z"/>
</svg>
